<?xml version="1.0" encoding="UTF-8"?>
<svg id="Layer_2" data-name="Layer 2" xmlns="http://www.w3.org/2000/svg" viewBox="0 0 974.25 159">
  <defs>
    <style>
      .cls-1 {
        fill: #fff;
        stroke: #ec1b7b;
        stroke-miterlimit: 10;
        stroke-width: 2px;
      }

      .cls-2 {
        fill: #585858;
      }

      .cls-3 {
        fill: #ec1b7b;
      }
    </style>
  </defs>
  <g id="Layer_1-2" data-name="Layer 1">
    <g>
      <path class="cls-2" d="m349.85,47.53c-5.72,0-11.07,0-16.42,0-2.35,0-2.37,0-3.18,2.28-6.84,19.07-13.67,38.14-20.5,57.22-.26.73-.46,1.49-.74,2.4h15.85c.84-2.5,1.68-4.99,2.53-7.48.77-2.26.78-2.28,3.21-2.29,6.55-.01,13.11,0,19.66,0,.79,0,1.57.09,2.49.14,1.15,3.3,2.27,6.5,3.4,9.74,5.36-.02,10.49.04,15.92-.04-7.48-20.88-14.82-41.36-22.21-61.98Zm-17.03,39.1c.37-2.7,1.49-5.05,2.25-7.5.8-2.58,1.69-5.14,2.59-7.69.85-2.43,1.47-4.96,2.61-7.27.18,0,.36.02.54.03,2.47,7.35,4.94,14.69,7.55,22.44h-15.54Z"/>
      <path class="cls-2" d="m292.46,47.7h-15.32c-3.71,14.22-7.43,28.44-11.14,42.67-.22.01-.44.02-.66.03-4.28-14.22-8.23-28.54-12.47-42.59-.45-.15-.6-.24-.75-.24-2.88-.02-5.76-.04-8.63-.05-2.52,0-2.53,0-3.23,2.45-3.55,12.26-7.1,24.53-10.66,36.79-.35,1.2-.75,2.39-1.13,3.58-.17.02-.35.04-.52.06-.28-.86-.59-1.71-.82-2.58-3.25-12.51-6.49-25.02-9.74-37.53-.23-.9-.54-1.79-.79-2.58-4.23-.44-13.34-.28-15.15.29,5.95,20.49,11.91,40.99,17.86,61.45h16.7c.35-1.09.72-2.12,1.03-3.18,2.94-10.11,5.85-20.24,8.82-30.34.24-.82.14-1.92,1.38-2.49,3.53,12.11,7.04,24.1,10.52,36.02h16.77c5.96-20.52,11.91-41.01,17.94-61.76Zm328.53,61.71c0-6.07,0-11.9,0-17.72,0-5.86-.03-11.71.32-17.65.77.6,1.27,1.28,1.72,1.98,4.58,7.12,9.15,14.25,13.72,21.37.34.54.66,1.1,1.07,1.59.75.89,1.64.87,2.39-.04.4-.49.71-1.06,1.06-1.6,4.62-7.19,9.23-14.38,13.87-21.56.4-.62.62-1.46,1.79-1.79.05.99.12,1.83.12,2.67,0,9.99,0,19.97.01,29.96,0,.92.1,1.85.15,2.78h14.02c.57-2.51.49-59.71-.1-61.75-.72-.04-1.5-.1-2.28-.11-3.2-.01-6.4.09-9.59-.04-1.75-.07-2.73.59-3.64,2.04-4.94,7.83-9.99,15.6-15.01,23.39-.45.7-.96,1.37-1.65,2.34-.68-1.02-1.17-1.73-1.64-2.45-5.06-7.85-10.14-15.7-15.16-23.58-.77-1.2-1.6-1.77-3.08-1.73-3.52.1-7.04.02-10.55.04-.68,0-1.35.14-2.03.21v61.66h14.48Zm-119.21-61.53c-2.83-.58-38.47-.46-40.12.08-.46,3.27-.29,59.79.19,61.45h40.34v-13.18h-2.76c-6.8,0-13.59,0-20.39,0-.92,0-1.85-.13-2.79-.2v-11.3h23.19c.13-4.53.12-8.71.03-13.18h-7.95c-2.56,0-5.12.03-7.68,0-2.52-.04-5.06.21-7.58-.18v-10.3c1.21-.06,2.23-.15,3.25-.15,6.48-.01,12.95,0,19.43-.02.92,0,1.83-.15,2.83-.24v-12.77Zm200.66-.22c-.5,3.21-.35,59.96.13,61.72h40.11c.47-3.32.33-11.3-.28-13.19h-25.19c-.71-2.56-.64-9.45.13-11.47h7.56c2.48,0,4.96.01,7.44,0,2.52-.01,5.04-.05,7.61-.08v-12.91c-1.07-.06-2.02-.16-2.96-.16-5.84-.01-11.67,0-17.51-.01-.84,0-1.69-.07-2.57-.11v-10.39c1.11-.05,2.05-.14,2.99-.14,6.56-.01,13.11,0,19.67-.02.91,0,1.83-.16,2.82-.25.07-4.49.12-8.68-.01-12.98h-39.93Zm-298.16,61.74h14.69v-48.33c1.22-.07,2.16-.16,3.1-.16,3.68-.02,7.35,0,11.03-.02.84,0,1.67-.15,2.51-.23v-12.83c-2.64-.49-46.2-.41-48.01.08v12.8c.97.07,1.82.18,2.68.18,3.68.02,7.35,0,11.03.02.93,0,1.86.13,2.97.21v48.28Zm380.75-13.2v-48.49h-14.4v61.69h37.84c.12-4.41.11-8.67.02-13.2h-23.45Z"/>
      <path class="cls-2" d="m974.25,109.67c-2.95-.04-5.91-.18-8.86-.08-1.55.05-2.46-.48-3.37-1.7-7.32-9.88-14.71-19.71-22.08-29.55-.52-.69-1.07-1.36-1.57-1.99-.25.1-.33.11-.4.15-.06.04-.14.09-.15.15-.06.23-.12.47-.12.7-.04,10.54-.07,21.07-.1,31.61,0,.07-.05.15-.14.4h-14.04s-.03-.04-.08-.1c-.05-.06-.14-.12-.14-.19-.05-19.48-.09-38.95-.13-58.43,0-.8.04-1.59.09-2.39,0-.14.15-.27.41-.74,1.77,0,3.78.23,5.71-.05,3.54-.51,5.61.98,7.64,3.82,6.65,9.28,13.61,18.33,20.46,27.47.51.68,1.05,1.32,1.88,2.36.57-3.16.24-5.84.3-8.49.06-2.79.01-5.59.01-8.38v-16.49c.87-.09,1.55-.22,2.23-.22,3.36-.02,6.71,0,10.07-.02.79,0,1.58-.12,2.37-.18v62.32Z"/>
      <path class="cls-2" d="m292.46,47.7c-6.03,20.75-11.98,41.25-17.94,61.76h-16.77c-3.48-11.92-6.98-23.92-10.52-36.02-1.24.57-1.14,1.67-1.38,2.49-2.97,10.1-5.89,20.23-8.82,30.34-.31,1.06-.68,2.1-1.03,3.18h-16.7c-5.94-20.46-11.9-40.95-17.86-61.45,1.81-.57,10.92-.74,15.15-.29.24.79.55,1.67.79,2.58,3.25,12.51,6.49,25.02,9.74,37.53.23.87.54,1.72.82,2.58.17-.02.35-.04.52-.06.38-1.19.78-2.38,1.13-3.58,3.56-12.26,7.1-24.52,10.66-36.79.71-2.45.72-2.45,3.23-2.45,2.88,0,5.76.02,8.63.05.15,0,.3.09.75.24,4.24,14.04,8.19,28.37,12.47,42.59.22-.01.44-.02.66-.03,3.72-14.23,7.43-28.46,11.14-42.67h15.32Z"/>
      <path class="cls-2" d="m620.99,109.41h-14.48v-61.66c.67-.07,1.35-.21,2.03-.21,3.52-.02,7.04.06,10.55-.04,1.48-.04,2.31.52,3.08,1.73,5.02,7.88,10.09,15.73,15.16,23.58.47.72.96,1.43,1.64,2.45.68-.96,1.19-1.63,1.65-2.34,5.02-7.79,10.07-15.55,15.01-23.39.92-1.45,1.89-2.11,3.64-2.04,3.19.14,6.39.03,9.59.04.78,0,1.56.07,2.28.11.59,2.04.67,59.24.1,61.75h-14.02c-.05-.93-.15-1.86-.15-2.78-.01-9.99,0-19.97-.01-29.96,0-.84-.07-1.68-.12-2.67-1.17.33-1.39,1.16-1.79,1.79-4.64,7.18-9.25,14.37-13.87,21.56-.35.54-.66,1.11-1.06,1.6-.75.91-1.64.93-2.39.04-.41-.48-.72-1.05-1.07-1.59-4.57-7.12-9.14-14.25-13.72-21.37-.45-.7-.95-1.38-1.72-1.98-.35,5.94-.31,11.8-.32,17.65,0,5.83,0,11.65,0,17.72Z"/>
      <path class="cls-2" d="m501.78,47.88v12.77c-1,.09-1.92.24-2.83.24-6.48.02-12.95,0-19.43.02-1.02,0-2.05.09-3.25.15v10.3c2.52.39,5.06.14,7.58.18,2.56.04,5.12,0,7.68,0h7.95c.09,4.47.1,8.64-.03,13.18h-23.19v11.3c.94.07,1.87.2,2.79.2,6.8.02,13.59,0,20.39,0h2.76v13.18h-40.34c-.48-1.67-.65-58.18-.19-61.45,1.65-.54,37.29-.66,40.12-.08Z"/>
      <path class="cls-2" d="m702.45,47.66h39.93c.14,4.31.08,8.5.01,12.98-1,.09-1.91.25-2.82.25-6.56.02-13.11,0-19.67.02-.94,0-1.88.08-2.99.14v10.39c.88.04,1.72.11,2.57.11,5.84,0,11.67,0,17.51.01.94,0,1.88.1,2.96.16v12.91c-2.56.03-5.09.07-7.61.08-2.48.01-4.96,0-7.44,0h-7.56c-.77,2.02-.84,8.91-.13,11.47h25.19c.6,1.89.74,9.87.28,13.19h-40.11c-.48-1.76-.62-58.51-.13-61.72Z"/>
      <path class="cls-2" d="m404.29,109.4v-48.28c-1.11-.08-2.04-.2-2.97-.21-3.68-.02-7.35,0-11.03-.02-.85,0-1.7-.11-2.68-.18v-12.8c1.81-.48,45.38-.57,48.01-.08v12.83c-.83.08-1.67.22-2.51.23-3.68.03-7.35,0-11.03.02-.94,0-1.89.1-3.1.16v48.33h-14.69Z"/>
      <circle class="cls-1" cx="79.5" cy="79.5" r="78.5"/>
      <path class="cls-2" d="m785.04,96.2h23.45c.1,4.53.1,8.79-.02,13.2h-37.84v-61.69h14.4v48.49Z"/>
      <path class="cls-3" d="m79.43,100.64c-1.45,2.68-2.77,5.11-4.08,7.55-2.63,4.89-5.27,9.77-7.88,14.67-1.93,3.63-4.82,5.92-8.96,6.43-4.76.58-8.54-1.16-11.16-5.15-1.44-2.19-2.6-4.56-3.87-6.85-7.96-14.46-15.91-28.92-23.88-43.37-1.43-2.58-2.62-5.24-2.98-8.19-1.01-8.41,1.88-15.26,8.7-20.19,10.51-7.59,25.18-3.91,31.2,7.45,2.03,3.83,4.1,7.65,6.16,11.47.16.3.38.58.65,1,.83-.86,1.54-1.72,2.37-2.44,1.68-1.45,3.28-3.05,5.16-4.18,5.85-3.53,11.77-3.39,17.59.2,2.17,1.34,3.96,3.12,5.72,4.94.44.46.9.91,1.47,1.49.51-.9.93-1.63,1.33-2.37,1.82-3.38,3.61-6.77,5.45-10.14,3.32-6.11,8.45-9.86,15.27-11.05,11.13-1.94,21.98,5.07,24.41,16.65,1.06,5.05.25,9.84-2.23,14.34-4.96,9.02-9.93,18.04-14.9,27.05-4.24,7.69-8.48,15.38-12.69,23.08-1.89,3.45-4.67,5.54-8.59,6.27-3.88.73-9.24-1.15-11.63-5.41-1.31-2.33-2.56-4.7-3.83-7.05-2.68-4.98-5.36-9.95-8.04-14.93-.19-.35-.41-.67-.78-1.27Zm-49-12.61c-.07.07-.14.14-.2.21.22.44.43.89.67,1.33.95,1.73,1.91,3.44,2.85,5.17,5.04,9.15,10.07,18.31,15.12,27.45,1.76,3.18,4.45,4.87,8.13,4.87,3.68,0,6.4-1.67,8.13-4.86,4.15-7.63,8.23-15.29,12.37-22.91.46-.85.46-1.52,0-2.38-4.72-8.69-9.4-17.41-14.1-26.11-.2-.37-.46-.71-.79-1.22-1.62,2.06-3.06,4-4.62,5.85-2.22,2.62-4.44,5.24-6.81,7.71-2.1,2.2-4.54,4.01-7.31,5.32-4.23,2-8.44,2.15-12.65-.06-.26-.14-.53-.24-.8-.36Zm65.74-18.45c-5.19,9.64-10.28,19.08-15.37,28.53,4.47,8.29,8.89,16.5,13.36,24.69.45.82,1.15,1.54,1.85,2.17,3.72,3.33,10.93,3.02,14.1-2.83,5.31-9.8,10.74-19.54,16.11-29.3.87-1.57,1.73-3.15,2.76-5.03-.84.39-1.38.63-1.9.89-1.99.96-4.1,1.44-6.3,1.3-3.26-.21-6.15-1.48-8.81-3.32-2.59-1.79-4.9-3.91-6.93-6.3-2.58-3.04-5.03-6.19-7.54-9.28-.37-.46-.78-.88-1.34-1.52Zm1.27-2.41c2.08,2.64,4.04,5.14,6.03,7.62,1.07,1.34,2.15,2.68,3.3,3.95,2.7,2.96,5.55,5.76,9.21,7.53,4.52,2.19,8.8,1.76,12.76-1.37,2.21-1.74,3.95-3.91,5.34-6.33,1.41-2.45,2.75-4.94,4.08-7.43,1.77-3.31,2.35-6.87,1.92-10.56-1.1-9.38-9.48-18.25-21.87-16.41-5.98.89-10.5,4.23-13.51,9.51-.75,1.31-1.44,2.66-2.16,3.99-1.69,3.15-3.39,6.31-5.1,9.5Zm-35.98.15c-.1-.28-.14-.48-.23-.66-2.44-4.53-4.73-9.15-7.36-13.57-4.37-7.35-12.67-10.71-21.18-8.53-11.07,2.84-17.61,15.72-11.8,26.78,1.27,2.41,2.57,4.81,3.93,7.17,1.16,2.02,2.57,3.87,4.3,5.45,2.25,2.05,4.77,3.52,7.94,3.63,2.9.1,5.44-.9,7.82-2.41,2.75-1.75,5.14-3.94,7.23-6.41,3.16-3.73,6.19-7.58,9.35-11.46Zm18.01,28.21c5.08-9.43,10.02-18.61,14.98-27.82-.72-.79-1.35-1.51-2.01-2.2-1.82-1.9-3.7-3.74-6.03-5.03-4.55-2.51-9.19-2.63-13.71-.04-1.82,1.04-3.41,2.5-5,3.89-1.16,1.02-2.16,2.23-3.23,3.36,5,9.28,9.93,18.42,15,27.84Z"/>
      <path class="cls-2" d="m881.88,52.61c-12.08-8.44-29.02-8.33-40.97.26-14.11,10.15-17.59,29.54-7.62,43.6,6.83,9.63,16.5,13.98,25.26,14.2,8.76.03,13.93-1.12,18.88-3.55,22-10.81,24.42-40.55,4.44-54.5Zm-16.64,44.29c-4.85.84-9.41.13-13.68-2.18-7.05-3.81-10.41-11.5-8.91-20.01,1.31-7.43,7.41-13.29,15.04-14.52,3.13-.5,6.2-.44,9.26.36,8.65,2.27,13.92,9.09,13.9,18.04-.02,9.54-6.17,16.68-15.62,18.32Z"/>
      <path class="cls-2" d="m566.38,86.89c1.16-.73,2.05-1.25,2.89-1.84,5.16-3.62,8.52-8.36,9.04-14.79.82-10.17-5.78-17.91-13.33-20.94-3.08-1.24-6.29-1.77-9.59-1.78-7.51-.02-15.02,0-22.54,0-.79,0-1.57,0-2.63,0v61.89h14.5v-20.42c1.8,0,3.31.13,4.78-.03,1.96-.22,3.03.64,3.98,2.27,3.26,5.58,6.69,11.06,9.97,16.64.74,1.26,1.58,1.74,3.04,1.71,3.75-.1,7.51-.03,11.27-.04.67,0,1.35-.06,2.35-.11-4.69-7.7-9.19-15.08-13.74-22.54Zm-9.22-10.11c-4.03.53-8.08.21-12.34.15v-16.06c.63-.09,1.16-.23,1.69-.23,3.19-.02,6.39-.05,9.58,0,4.23.08,7.34,3.1,7.65,7.34.34,4.61-2.26,8.23-6.57,8.79Z"/>
    </g>
  </g>
</svg>