<?xml version="1.0" encoding="UTF-8"?>
<svg id="Layer_2" data-name="Layer 2" xmlns="http://www.w3.org/2000/svg" viewBox="0 0 772.81 390.64">
  <defs>
    <style>
      .cls-1 {
        fill: #ed1d7b;
      }

      .cls-2 {
        fill: #fff;
        stroke: #ed1c7b;
        stroke-miterlimit: 10;
        stroke-width: 2px;
      }

      .cls-3 {
        fill: #595959;
      }
    </style>
  </defs>
  <g id="Layer_1-2" data-name="Layer 1">
    <g>
      <path class="cls-3" d="m148.41,327.5c-5.72,0-11.07,0-16.42,0-2.35,0-2.37,0-3.18,2.28-6.84,19.07-13.67,38.14-20.5,57.22-.26.73-.46,1.49-.74,2.4h15.85c.84-2.5,1.68-4.99,2.53-7.48.77-2.26.78-2.28,3.21-2.29,6.55-.01,13.11,0,19.66,0,.79,0,1.57.09,2.49.14,1.15,3.3,2.27,6.5,3.4,9.74,5.36-.02,10.49.04,15.92-.04-7.48-20.88-14.82-41.36-22.21-61.98Zm-17.03,39.1c.37-2.7,1.49-5.05,2.25-7.5.8-2.58,1.69-5.14,2.59-7.69.85-2.43,1.47-4.96,2.61-7.27.18,0,.36.02.54.03,2.47,7.35,4.94,14.69,7.55,22.44h-15.54Z"/>
      <path class="cls-3" d="m91.02,327.67h-15.32c-3.71,14.22-7.43,28.44-11.14,42.67-.22.01-.44.02-.66.03-4.28-14.22-8.23-28.54-12.47-42.59-.45-.15-.6-.24-.75-.24-2.88-.02-5.76-.04-8.63-.05-2.52,0-2.53,0-3.23,2.45-3.55,12.26-7.1,24.53-10.66,36.79-.35,1.2-.75,2.39-1.13,3.58-.17.02-.35.04-.52.06-.28-.86-.59-1.71-.82-2.58-3.25-12.51-6.49-25.02-9.74-37.53-.23-.9-.54-1.79-.79-2.58-4.23-.44-13.34-.28-15.15.29,5.95,20.49,11.91,40.99,17.86,61.45h16.7c.35-1.09.72-2.12,1.03-3.18,2.94-10.11,5.85-20.24,8.82-30.34.24-.82.14-1.92,1.38-2.49,3.53,12.11,7.04,24.1,10.52,36.02h16.77c5.96-20.52,11.91-41.01,17.94-61.76Zm328.53,61.71c0-6.07,0-11.9,0-17.72,0-5.86-.03-11.71.32-17.65.77.6,1.27,1.28,1.72,1.98,4.58,7.12,9.15,14.25,13.72,21.37.34.54.66,1.1,1.07,1.59.75.89,1.64.87,2.39-.04.4-.49.71-1.06,1.06-1.6,4.62-7.19,9.23-14.38,13.87-21.56.4-.62.62-1.46,1.79-1.79.05.99.12,1.83.12,2.67,0,9.99,0,19.97.01,29.96,0,.92.1,1.85.15,2.78h14.02c.57-2.51.49-59.71-.1-61.75-.72-.04-1.5-.1-2.28-.11-3.2-.01-6.4.09-9.59-.04-1.75-.07-2.73.59-3.64,2.04-4.94,7.83-9.99,15.6-15.01,23.39-.45.7-.96,1.37-1.65,2.34-.68-1.02-1.17-1.73-1.64-2.45-5.06-7.85-10.14-15.7-15.16-23.58-.77-1.2-1.6-1.77-3.08-1.73-3.52.1-7.04.02-10.55.04-.68,0-1.35.14-2.03.21v61.66h14.48Zm-119.21-61.53c-2.83-.58-38.47-.46-40.12.08-.46,3.27-.29,59.79.19,61.45h40.34v-13.18h-2.76c-6.8,0-13.59,0-20.39,0-.92,0-1.85-.13-2.79-.2v-11.3h23.19c.13-4.53.12-8.71.03-13.18h-7.95c-2.56,0-5.12.03-7.68,0-2.52-.04-5.06.21-7.58-.18v-10.3c1.21-.06,2.23-.15,3.25-.15,6.48-.01,12.95,0,19.43-.02.92,0,1.83-.15,2.83-.24v-12.77Zm200.66-.22c-.5,3.21-.35,59.96.13,61.72h40.11c.47-3.32.33-11.3-.28-13.19h-25.19c-.71-2.56-.64-9.45.13-11.47h7.56c2.48,0,4.96.01,7.44,0,2.52-.01,5.04-.05,7.61-.08v-12.91c-1.07-.06-2.02-.16-2.96-.16-5.84-.01-11.67,0-17.51-.01-.84,0-1.69-.07-2.57-.11v-10.39c1.11-.05,2.05-.14,2.99-.14,6.56-.01,13.11,0,19.67-.02.91,0,1.83-.16,2.82-.25.07-4.49.12-8.68-.01-12.98h-39.93Zm-298.16,61.74h14.69v-48.33c1.22-.07,2.16-.16,3.1-.16,3.68-.02,7.35,0,11.03-.02.84,0,1.67-.15,2.51-.23v-12.83c-2.64-.49-46.2-.41-48.01.08v12.8c.97.07,1.82.18,2.68.18,3.68.02,7.35,0,11.03.02.93,0,1.86.13,2.97.21v48.28Zm380.75-13.2v-48.49h-14.4v61.69h37.84c.12-4.41.11-8.67.02-13.2h-23.45Z"/>
      <path class="cls-3" d="m772.81,389.63c-2.95-.04-5.91-.18-8.86-.08-1.55.05-2.46-.48-3.37-1.7-7.32-9.88-14.71-19.71-22.08-29.55-.52-.69-1.07-1.36-1.57-1.99-.25.1-.33.11-.4.15-.06.04-.14.09-.15.15-.06.23-.12.47-.12.7-.04,10.54-.07,21.07-.1,31.61,0,.07-.05.15-.14.4h-14.04s-.03-.04-.08-.1c-.05-.06-.14-.12-.14-.19-.05-19.48-.09-38.95-.13-58.43,0-.8.04-1.59.09-2.39,0-.14.15-.27.41-.74,1.77,0,3.78.23,5.71-.05,3.54-.51,5.61.98,7.64,3.82,6.65,9.28,13.61,18.33,20.46,27.47.51.68,1.05,1.32,1.88,2.36.57-3.16.24-5.84.3-8.49.06-2.79.01-5.59.01-8.38v-16.49c.87-.09,1.55-.22,2.23-.22,3.36-.02,6.71,0,10.07-.02.79,0,1.58-.12,2.37-.18v62.32Z"/>
      <path class="cls-3" d="m91.02,327.67c-6.03,20.75-11.98,41.25-17.94,61.76h-16.77c-3.48-11.92-6.98-23.92-10.52-36.02-1.24.57-1.14,1.67-1.38,2.49-2.97,10.1-5.89,20.23-8.82,30.34-.31,1.06-.68,2.1-1.03,3.18h-16.7c-5.94-20.46-11.9-40.95-17.86-61.45,1.81-.57,10.92-.74,15.15-.29.24.79.55,1.67.79,2.58,3.25,12.51,6.49,25.02,9.74,37.53.23.87.54,1.72.82,2.58.17-.02.35-.04.52-.06.38-1.19.78-2.38,1.13-3.58,3.56-12.26,7.1-24.52,10.66-36.79.71-2.45.72-2.45,3.23-2.45,2.88,0,5.76.02,8.63.05.15,0,.3.09.75.24,4.24,14.04,8.19,28.37,12.47,42.59.22-.01.44-.02.66-.03,3.72-14.23,7.43-28.46,11.14-42.67h15.32Z"/>
      <path class="cls-3" d="m419.55,389.38h-14.48v-61.66c.67-.07,1.35-.21,2.03-.21,3.52-.02,7.04.06,10.55-.04,1.48-.04,2.31.52,3.08,1.73,5.02,7.88,10.09,15.73,15.16,23.58.47.72.96,1.43,1.64,2.45.68-.96,1.19-1.63,1.65-2.34,5.02-7.79,10.07-15.55,15.01-23.39.92-1.45,1.89-2.11,3.64-2.04,3.19.14,6.39.03,9.59.04.78,0,1.56.07,2.28.11.59,2.04.67,59.24.1,61.75h-14.02c-.05-.93-.15-1.86-.15-2.78-.01-9.99,0-19.97-.01-29.96,0-.84-.07-1.68-.12-2.67-1.17.33-1.39,1.16-1.79,1.79-4.64,7.18-9.25,14.37-13.87,21.56-.35.54-.66,1.11-1.06,1.6-.75.91-1.64.93-2.39.04-.41-.48-.72-1.05-1.07-1.59-4.57-7.12-9.14-14.25-13.72-21.37-.45-.7-.95-1.38-1.72-1.98-.35,5.94-.31,11.8-.32,17.65,0,5.83,0,11.65,0,17.72Z"/>
      <path class="cls-3" d="m300.34,327.85v12.77c-1,.09-1.92.24-2.83.24-6.48.02-12.95,0-19.43.02-1.02,0-2.05.09-3.25.15v10.3c2.52.39,5.06.14,7.58.18,2.56.04,5.12,0,7.68,0h7.95c.09,4.47.1,8.64-.03,13.18h-23.19v11.3c.94.07,1.87.2,2.79.2,6.8.02,13.59,0,20.39,0h2.76v13.18h-40.34c-.48-1.67-.65-58.18-.19-61.45,1.65-.54,37.29-.66,40.12-.08Z"/>
      <path class="cls-3" d="m501.01,327.62h39.93c.14,4.31.08,8.5.01,12.98-1,.09-1.91.25-2.82.25-6.56.02-13.11,0-19.67.02-.94,0-1.88.08-2.99.14v10.39c.88.04,1.72.11,2.57.11,5.84,0,11.67,0,17.51.01.94,0,1.88.1,2.96.16v12.91c-2.56.03-5.09.07-7.61.08-2.48.01-4.96,0-7.44,0h-7.56c-.77,2.02-.84,8.91-.13,11.47h25.19c.6,1.89.74,9.87.28,13.19h-40.11c-.48-1.76-.62-58.51-.13-61.72Z"/>
      <path class="cls-3" d="m202.85,389.37v-48.28c-1.11-.08-2.04-.2-2.97-.21-3.68-.02-7.35,0-11.03-.02-.85,0-1.7-.11-2.68-.18v-12.8c1.81-.48,45.38-.57,48.01-.08v12.83c-.83.08-1.67.22-2.51.23-3.68.03-7.35,0-11.03.02-.94,0-1.89.1-3.1.16v48.33h-14.69Z"/>
      <circle class="cls-2" cx="383.39" cy="125.18" r="124.18"/>
      <path class="cls-3" d="m583.59,376.17h23.45c.1,4.53.1,8.79-.02,13.2h-37.84v-61.69h14.4v48.49Z"/>
      <path class="cls-1" d="m385.87,158.51c-2.29,4.24-4.38,8.09-6.46,11.95-4.16,7.73-8.34,15.45-12.46,23.21-3.05,5.75-7.62,9.37-14.17,10.16-7.53.91-13.51-1.83-17.65-8.14-2.27-3.46-4.12-7.21-6.12-10.84-12.59-22.87-25.17-45.75-37.78-68.6-2.25-4.09-4.15-8.29-4.71-12.96-1.6-13.3,2.98-24.15,13.77-31.95,16.62-12.01,39.83-6.18,49.36,11.78,3.22,6.07,6.49,12.1,9.75,18.14.26.48.59.92,1.03,1.58,1.31-1.37,2.44-2.73,3.76-3.87,2.65-2.29,5.19-4.83,8.16-6.62,9.25-5.58,18.62-5.36,27.83.32,3.43,2.12,6.27,4.93,9.04,7.82.7.73,1.42,1.45,2.33,2.36.8-1.42,1.47-2.57,2.11-3.75,2.88-5.34,5.72-10.7,8.61-16.03,5.26-9.67,13.37-15.6,24.16-17.48,17.6-3.07,34.77,8.02,38.61,26.34,1.68,7.99.39,15.56-3.52,22.69-7.84,14.28-15.71,28.53-23.57,42.8-6.7,12.17-13.42,24.33-20.08,36.51-2.99,5.46-7.39,8.76-13.59,9.92-6.14,1.16-14.62-1.83-18.39-8.56-2.07-3.69-4.05-7.43-6.05-11.16-4.24-7.87-8.47-15.75-12.72-23.62-.3-.55-.65-1.07-1.23-2.01Zm-77.51-19.94c-.11.11-.21.22-.32.33.35.7.69,1.41,1.06,2.1,1.5,2.73,3.01,5.45,4.52,8.18,7.97,14.48,15.93,28.96,23.92,43.43,2.78,5.03,7.04,7.7,12.87,7.7,5.82,0,10.12-2.65,12.87-7.69,6.56-12.06,13.02-24.18,19.57-36.25.73-1.35.72-2.41,0-3.76-7.47-13.75-14.87-27.54-22.31-41.31-.32-.59-.72-1.12-1.25-1.92-2.56,3.25-4.83,6.33-7.3,9.25-3.51,4.14-7.03,8.28-10.78,12.2-3.32,3.47-7.18,6.34-11.57,8.42-6.69,3.16-13.36,3.4-20.01-.09-.41-.21-.84-.39-1.26-.58Zm103.99-29.19c-8.22,15.26-16.26,30.18-24.31,45.13,7.08,13.11,14.07,26.11,21.14,39.06.71,1.3,1.82,2.44,2.93,3.44,5.88,5.26,17.29,4.77,22.3-4.48,8.4-15.5,16.99-30.91,25.49-46.36,1.37-2.49,2.73-4.99,4.36-7.96-1.33.62-2.18,1-3.01,1.41-3.15,1.52-6.48,2.28-9.96,2.06-5.16-.33-9.73-2.34-13.94-5.25-4.1-2.83-7.76-6.19-10.97-9.97-4.08-4.8-7.95-9.79-11.93-14.69-.59-.72-1.23-1.4-2.12-2.4Zm2.01-3.81c3.3,4.17,6.39,8.13,9.53,12.05,1.7,2.12,3.39,4.25,5.22,6.25,4.27,4.68,8.77,9.11,14.56,11.91,7.15,3.46,13.91,2.78,20.19-2.16,3.5-2.76,6.25-6.18,8.45-10.01,2.23-3.87,4.35-7.81,6.45-11.75,2.79-5.24,3.73-10.87,3.04-16.71-1.74-14.83-15-28.87-34.6-25.96-9.47,1.4-16.6,6.69-21.36,15.04-1.19,2.08-2.28,4.21-3.42,6.32-2.68,4.99-5.36,9.97-8.07,15.02Zm-56.92.24c-.16-.45-.22-.76-.37-1.04-3.86-7.17-7.48-14.47-11.64-21.46-6.91-11.63-20.04-16.94-33.51-13.49-17.51,4.49-27.85,24.87-18.67,42.37,2,3.81,4.07,7.6,6.22,11.34,1.84,3.19,4.06,6.13,6.8,8.62,3.57,3.24,7.54,5.57,12.55,5.75,4.59.16,8.61-1.42,12.38-3.81,4.35-2.76,8.13-6.23,11.44-10.14,5-5.91,9.8-11.99,14.79-18.13Zm28.49,44.62c8.04-14.92,15.85-29.44,23.69-44-1.14-1.26-2.14-2.39-3.18-3.48-2.88-3.01-5.86-5.92-9.54-7.95-7.2-3.97-14.54-4.15-21.68-.06-2.87,1.65-5.4,3.95-7.91,6.15-1.84,1.61-3.41,3.53-5.11,5.32,7.91,14.69,15.7,29.14,23.73,44.03Z"/>
      <path class="cls-3" d="m680.44,332.58c-12.08-8.44-29.02-8.33-40.97.26-14.11,10.15-17.59,29.54-7.62,43.6,6.83,9.63,16.5,13.98,25.26,14.2,8.76.03,13.93-1.12,18.88-3.55,22-10.81,24.42-40.55,4.44-54.5Zm-16.64,44.29c-4.85.84-9.41.13-13.68-2.18-7.05-3.81-10.41-11.5-8.91-20.01,1.31-7.43,7.41-13.29,15.04-14.52,3.13-.5,6.2-.44,9.26.36,8.65,2.27,13.92,9.09,13.9,18.04-.02,9.54-6.17,16.68-15.62,18.32Z"/>
      <path class="cls-3" d="m364.94,366.85c1.16-.73,2.05-1.25,2.89-1.84,5.16-3.62,8.52-8.36,9.04-14.79.82-10.17-5.78-17.91-13.33-20.94-3.08-1.24-6.29-1.77-9.59-1.78-7.51-.02-15.02,0-22.54,0-.79,0-1.57,0-2.63,0v61.89h14.5v-20.42c1.8,0,3.31.13,4.78-.03,1.96-.22,3.03.64,3.98,2.27,3.26,5.58,6.69,11.06,9.97,16.64.74,1.26,1.58,1.74,3.04,1.71,3.75-.1,7.51-.03,11.27-.04.67,0,1.35-.06,2.35-.11-4.69-7.7-9.19-15.08-13.74-22.54Zm-9.22-10.11c-4.03.53-8.08.21-12.34.15v-16.06c.63-.09,1.16-.23,1.69-.23,3.19-.02,6.39-.05,9.58,0,4.23.08,7.34,3.1,7.65,7.34.34,4.61-2.26,8.23-6.57,8.79Z"/>
    </g>
  </g>
</svg>