<svg xmlns="http://www.w3.org/2000/svg" width="23" height="18.4" viewBox="0 0 23 18.4">
  <path id="Delete_Account" data-name="Delete Account" d="M22.425,7.475h-6.9a.577.577,0,0,0-.575.575V9.2a.577.577,0,0,0,.575.575h6.9A.577.577,0,0,0,23,9.2V8.05A.577.577,0,0,0,22.425,7.475ZM8.05,9.2a4.6,4.6,0,1,0-4.6-4.6A4.6,4.6,0,0,0,8.05,9.2Zm3.22,1.15h-.6a6.256,6.256,0,0,1-5.24,0h-.6A4.831,4.831,0,0,0,0,15.18v1.495A1.725,1.725,0,0,0,1.725,18.4h12.65A1.725,1.725,0,0,0,16.1,16.675V15.18A4.831,4.831,0,0,0,11.27,10.35Z" fill="#617191"/>
</svg>
