<svg xmlns="http://www.w3.org/2000/svg" width="363.5" height="358.573" viewBox="0 0 363.5 358.573">
  <g id="_3" data-name="3" transform="translate(77.486 63.963)">
    <g id="Layer_2" data-name="Layer 2" transform="translate(-77.486 -63.963)">
      <g id="Layer_1" data-name="Layer 1" transform="translate(0 0)">
        <g id="Group_13219" data-name="Group 13219">
          <g id="Group_13218" data-name="Group 13218">
            <path id="Path_21543" data-name="Path 21543" d="M38.15,490.56S12.1,530.1,15.391,565.666C17.563,589.17-3.4,568.274.48,534.829,2.782,514.98,19.945,503.818,38.15,490.56Z" transform="translate(30.712 -270.77)" fill="#e7207b"/>
            <path id="Path_21544" data-name="Path 21544" d="M682.709,671.4c-13.064,22.172-34.459,34.987-45.93,26.073-11.447-8.946-5.513-29.485,15.672-41.467,18.32-10.361,35.775-37.337,42.03-32.573,6.151,4.9,1.344,25.747-11.768,47.964Z" transform="translate(-350.213 -350.637)" fill="#a2daf7"/>
            <path id="Path_21545" data-name="Path 21545" d="M36.894,448.792a4.982,4.982,0,1,1-4.982-4.982A4.983,4.983,0,0,1,36.894,448.792Z" transform="translate(14.456 -242.549)" fill="#e7207b"/>
            <path id="Path_21546" data-name="Path 21546" d="M52.161,723.956a6.786,6.786,0,1,1-6.786-6.786A6.786,6.786,0,0,1,52.161,723.956Z" transform="translate(7.418 -407.56)" fill="#e7207b"/>
            <path id="Path_21547" data-name="Path 21547" d="M794.281,552.9a7.471,7.471,0,1,0,7.471,7.471A7.472,7.472,0,0,0,794.281,552.9Z" transform="translate(-444.238 -308.4)" fill="#e7207b"/>
            <g id="Group_13206" data-name="Group 13206">
              <path id="Path_21548" data-name="Path 21548" d="M350.6,178.186C365.637,310.6,141.087,335.66,97.9,309.5S58.45,247.965,86.9,204.6s14.986-48.839,4.324-72.149c0,0-27.309-60.481,48.923-115.907C213.9-37.093,335.565,45.774,350.6,178.186Z" transform="translate(-8.808 25.35)" fill="#e7207b"/>
              <g id="Group_13197" data-name="Group 13197" transform="translate(56.827 248.282)">
                <g id="Group_13193" data-name="Group 13193" transform="translate(0 36.499)">
                  <path id="Path_21549" data-name="Path 21549" d="M123.206,677.169s-7.7-27.531-13.71-21.875S111.276,669.943,123.206,677.169Z" transform="translate(-90.957 -654.528)" fill="#2a64a2"/>
                  <path id="Path_21550" data-name="Path 21550" d="M98.5,694.164s-25.7-19.3-31.923-6.124S98.5,694.164,98.5,694.164Z" transform="translate(-65.887 -671.979)" fill="#3669b2"/>
                </g>
                <g id="Group_13196" data-name="Group 13196" transform="translate(7.663)">
                  <g id="Group_13194" data-name="Group 13194">
                    <path id="Path_21551" data-name="Path 21551" d="M167.948,647.9s29.937.769,55.253-54.717c.741-1.621-6.155-9.152-6.155-9.152l-10.71-13.052a23.4,23.4,0,0,0-30.861-4.732l-5.038,3.31a7.482,7.482,0,0,1-1.157.626,7.926,7.926,0,0,1-7.456-.622,23.4,23.4,0,0,0-36.081,19.319l-.032,2.465a7.883,7.883,0,0,1-7.971,7.781l-6.484-.071a7.9,7.9,0,0,0-7.745,5.914,7.709,7.709,0,0,0-.032,3.872l1.237,5.058a7.876,7.876,0,0,1,.04,3.619c-.052.206-.107.412-.166.6a7.944,7.944,0,0,1-3.183,4.241,6.775,6.775,0,0,1-1.237.678,7.782,7.782,0,0,1-4.522.523,7.824,7.824,0,0,0-8.6,4.907s-2.549,11.154-1.633,14.749c2.1,8.24,43.294,13.833,82.53,4.689Z" transform="translate(-85.219 -562.443)" fill="#fff"/>
                    <path id="Path_21552" data-name="Path 21552" d="M349.592,595.012a5.792,5.792,0,1,0,3.008-7.622,5.794,5.794,0,0,0-3.008,7.622Z" transform="translate(-244.517 -577.213)" fill="#e7207b"/>
                    <path id="Path_21553" data-name="Path 21553" d="M123.826,727.818a5.792,5.792,0,1,0,3-7.618,5.794,5.794,0,0,0-3,7.618Z" transform="translate(-108.233 -657.382)" fill="#e7207b"/>
                    <path id="Path_21554" data-name="Path 21554" d="M205.319,606.048a9.653,9.653,0,1,0,5.01-12.7A9.652,9.652,0,0,0,205.319,606.048Z" transform="translate(-157.232 -580.615)" fill="#e7207b"/>
                  </g>
                  <g id="Group_13195" data-name="Group 13195" transform="translate(50.341 24.377)">
                    <path id="Path_21555" data-name="Path 21555" d="M283.2,649.837s7.376-27.618-.678-25.807S276.6,637.546,283.2,649.837Z" transform="translate(-251.517 -623.945)" fill="#3669b2"/>
                    <path id="Path_21556" data-name="Path 21556" d="M243.91,667.009s-22.267-23.171-30.528-11.165S243.91,667.009,243.91,667.009Z" transform="translate(-212.228 -641.117)" fill="#2a64a2"/>
                    <path id="Path_21557" data-name="Path 21557" d="M292.16,654.2s35.9-21.059,23.726-22.929S292.16,654.2,292.16,654.2Z" transform="translate(-260.478 -628.304)" fill="#2a64a2"/>
                  </g>
                </g>
              </g>
              <circle id="Ellipse_515" data-name="Ellipse 515" cx="93.117" cy="93.117" r="93.117" transform="translate(0 131.688) rotate(-45)" fill="#e7207b" opacity="0.6"/>
              <path id="Path_21558" data-name="Path 21558" d="M184.47,330.363s3.218,93.779,22.252,91.678,42.68-26.75,42.68-26.75l-18.015-37.864-9.893,12.909-12.989-41.4-24.031,1.419Z" transform="translate(-80.641 -173.209)" fill="#f4a091"/>
              <path id="Path_21559" data-name="Path 21559" d="M342.926,297.906l-16.762-4.126s-38.241,29.454-37.587,42.533c0,0,10.856,42.125,22.6,41.166S342.926,297.906,342.926,297.906Z" transform="translate(-143.48 -151.985)" fill="#a2daf7"/>
              <path id="Path_21560" data-name="Path 21560" d="M564.817,151.276a32.029,32.029,0,0,1-14.4-1.578,54.741,54.741,0,0,0,10.06-.947c21.895-4.079,30.227,3.159,30.227,3.159-3.024-3.646-14.618-9.418-33.885-6.754-8.851,1.221-15.387-.345-19.877-2.39a94.978,94.978,0,0,1-19.37-18.28s3.833-11.827-10.753-4.681a6.521,6.521,0,0,0-9.766,6.148C478.981,142.529,503.971,186,506.829,220c2.981,35.474,26.322,23.9,53.481,24.436s-8.787-14.586,28.256-38.887.63-57.524-23.746-54.27Z" transform="translate(-265.4 -45.582)" fill="#5a5959"/>
              <path id="Path_21561" data-name="Path 21561" d="M495.055,324.181s-67.25-28.863-96.688-26.021-8.312,78.043,24.876,69.989,67.857-10.016,71.809-43.968Z" transform="translate(-201.303 -154.51)" fill="#f5a697"/>
              <path id="Path_21562" data-name="Path 21562" d="M395.6,355.326a31.284,31.284,0,0,1,10.234,8.843c2.556,3.393,5.184,6.869,8.656,9.39a26.049,26.049,0,0,0,12.783,4.411c12.481,1.288,24.4-4.067,35.538-9.013,5.83-2.592,11.76-4.974,17.432-7.907a89.394,89.394,0,0,1,12.422-5.767c1.554.646,2.414,1.015,2.414,1.015-3.952,33.952-38.621,35.91-71.808,43.968-22.228,5.394-39.041-26.56-38.879-49.1a47.438,47.438,0,0,1,11.213,4.174Z" transform="translate(-201.319 -186.622)" fill="#231f20" opacity="0.15"/>
              <g id="Group_13201" data-name="Group 13201" transform="translate(205.593 80.976)">
                <path id="Path_21563" data-name="Path 21563" d="M500.141,211.941a11.344,11.344,0,1,1-8.28-13.742A11.348,11.348,0,0,1,500.141,211.941Z" transform="translate(-463.29 -175.062)" fill="#5a5959"/>
                <path id="Path_21564" data-name="Path 21564" d="M525,208.5a18.15,18.15,0,1,1-13.246-21.986A18.15,18.15,0,0,1,525,208.5Z" transform="translate(-470.2 -167.884)" fill="#5a5959"/>
                <path id="Path_21565" data-name="Path 21565" d="M548.541,166.781a11.345,11.345,0,1,1-8.28-13.742A11.348,11.348,0,0,1,548.541,166.781Z" transform="translate(-492.506 -147.802)" fill="#5a5959"/>
                <g id="Group_13200" data-name="Group 13200" transform="translate(0)">
                  <g id="Group_13198" data-name="Group 13198" transform="translate(11.762 37.988)">
                    <path id="Path_21566" data-name="Path 21566" d="M491.724,236.18S485.18,255.5,480.9,260.227s-17.475,9.695-4.324,17.349,34.408,2.806,35.149-2.62-7.313-11.514-7.226-22.45,2.224-13.9,2.224-13.9l-15.006-2.43Z" transform="translate(-470.893 -236.18)" fill="#f5a697"/>
                    <path id="Path_21567" data-name="Path 21567" d="M480.914,260.227c4.277-4.725,10.821-24.047,10.821-24.047l14.063,2.279a2.339,2.339,0,0,0-1.419,1.356c-3.246,7.515-11.839,10.317-17.186,16.017-4.158,4.431-8.28,11.027-7.023,17.372a13.039,13.039,0,0,0,4.511,7.44,28.194,28.194,0,0,1-8.082-3.068c-13.151-7.654.044-12.62,4.324-17.349Z" transform="translate(-470.903 -236.18)" fill="#d66f85" opacity="0.25"/>
                  </g>
                  <g id="Group_13199" data-name="Group 13199">
                    <path id="Path_21568" data-name="Path 21568" d="M489.431,223.121c5.763,7.091,24.943-.535,26.564-10.234.5-3.052,1.363-8.3,1.363-8.3s4.578-2.35,3.611-7.131c-.793-3.694-3.73-1.149-3.73-1.149L517,192.162l-29.283-1.792s-.325,2.132-.717,5.414c-.182,1.688-.329,3.726-.5,5.87-.464,7.812-.277,17.559,2.925,21.459Z" transform="translate(-468.439 -170.539)" fill="#f5a697"/>
                    <path id="Path_21569" data-name="Path 21569" d="M566.108,206.666s.983-1.2,1.542-.365.428,4.134-1.13,5.335c0,0,1.486-3.048.947-4.027s-1.764-.063-1.36-.943Z" transform="translate(-516.557 -179.978)" fill="#ed899c"/>
                    <path id="Path_21570" data-name="Path 21570" d="M441.368,152.788c-.943,2.691,2.652,8.062,6.706,11.407.527-3.555,1.657-5.719,5.644-6.853.765-.214-3.52,3.218-3.6,7.848a27.157,27.157,0,0,0,7.7,3.084c10.194,2.374,34.17-5.62,34.17-5.62,1.034-34.012-46.338-22.188-50.619-9.869Z" transform="translate(-441.216 -140.337)" fill="#5a5959"/>
                  </g>
                </g>
              </g>
              <path id="Path_21571" data-name="Path 21571" d="M477.584,339.292s1.189,39.846-7.1,75.5c-3.2,13.73-7.8,26.841-14.408,36.822-23.8,35.9-112.027,56.069-122.745,41.455a8.518,8.518,0,0,1-1.078-2.235c-8.557-24.876,5.486-185.774,14.669-195.378,9.544-9.968,29.5-3.1,29.5-3.1-5.957,12.917-9.794,38.958,12.065,56.125s70.037-30.658,70.5-30.623C472.9,319.034,477.584,339.292,477.584,339.292Z" transform="translate(-168.243 -149.736)" fill="#1487a8"/>
              <path id="Path_21572" data-name="Path 21572" d="M486.063,218.86a67.008,67.008,0,0,0-.428,10.4,36.789,36.789,0,0,0,.551,5.216,16.787,16.787,0,0,0,1.689,5.05,7.456,7.456,0,0,0,4.2,3.4,12.6,12.6,0,0,0,5.307.476,22.886,22.886,0,0,0,9.794-3.5,28.741,28.741,0,0,1-4.824,1.851,21.864,21.864,0,0,1-5.03.9,12.774,12.774,0,0,1-4.947-.6,6.536,6.536,0,0,1-3.654-3.016,16.139,16.139,0,0,1-1.629-4.74,46.164,46.164,0,0,1-.71-5.085c-.159-1.712-.226-3.436-.262-5.165C486.055,222.324,486.071,220.6,486.063,218.86Z" transform="translate(-262.407 -106.76)" fill="#ed9080"/>
              <g id="Group_13204" data-name="Group 13204" transform="translate(164.012 175.644)">
                <path id="Path_21573" data-name="Path 21573" d="M474.54,555.314c-3.2,13.73-7.8,26.841-14.408,36.822-23.8,35.9-112.027,56.069-122.745,41.455a8.517,8.517,0,0,1-1.078-2.235c5.914-.293,11.586-.583,13.139-.563,11.1.178,26.723-8.034,37.5-10.7a68.881,68.881,0,0,0,13.242-4.752,39,39,0,0,0,11.435-7.971c2.628-2.751,5.129-6.219,5.069-10.194-.052-3.369-1.784-6.429-3.686-9.116-2.156-3.032-4.685-5.767-6.841-8.8-1.859-2.612-8.407-15.117-8.5-18.391,2.093.793,9.378,10.86,11.487,9.865,3.5-1.661,3.714-6.5,3.409-9.822a28.95,28.95,0,0,0-1.411-6.56,22.449,22.449,0,0,0-2.164-4.737,67.4,67.4,0,0,1,7.444-2.255,76.284,76.284,0,0,1,30.571-.622c.234.04.543-.143.44-.428-.583-1.78-1.11-3.559-1.593-5.375a66.813,66.813,0,0,1-2.335-18.1c.131.234.266.48.408.713a85.793,85.793,0,0,0,12.133,14.939c2.315,2.362,4.7,4.661,7.131,6.913,2.18,2.033,4.36,4.075,6.635,6.009,1.558,1.32,3.123,2.624,4.713,3.9Z" transform="translate(-336.31 -465.899)" fill="#231f20" opacity="0.1"/>
                <g id="Group_13203" data-name="Group 13203" transform="translate(4.899 20.873)">
                  <path id="Path_21574" data-name="Path 21574" d="M356,500.922a.583.583,0,0,1,.741.42L360,512.127a.641.641,0,0,1-.373.8.6.6,0,0,1-.745-.432l-3.25-10.757a.657.657,0,0,1,.365-.816Z" transform="translate(-352.854 -473.522)" fill="#e2aa52"/>
                  <path id="Path_21575" data-name="Path 21575" d="M352.321,442.431l24.955-10.147a5.747,5.747,0,0,1,7.757,3.809l21.217,70.2a5.746,5.746,0,0,1-4.348,7.467l-10.829,2.2a4.987,4.987,0,0,1-1.391.166,1.073,1.073,0,0,0-.3.02l-2.251.46a.989.989,0,0,0-.27.1,4.645,4.645,0,0,1-1.3.381L375.5,519.139a6.393,6.393,0,0,1-7.091-4.594L348.956,450.18a6.387,6.387,0,0,1,3.361-7.749Z" transform="translate(-348.67 -431.841)" fill="#eeb653"/>
                  <path id="Path_21576" data-name="Path 21576" d="M356.147,448.318l24.737-9.909a3.78,3.78,0,0,1,5.077,2.513l21,69.494a3.778,3.778,0,0,1-2.834,4.9l-26.084,5.45a4.2,4.2,0,0,1-4.677-3.012l-19.441-64.333a4.2,4.2,0,0,1,2.224-5.1Z" transform="translate(-351.728 -435.635)" fill="#fcc65a"/>
                  <path id="Path_21577" data-name="Path 21577" d="M384.986,452.008c-2.775,7.594-5.795,15.093-8.9,22.561-3.012,7.245-6.1,14.463-9.112,21.709l-13.032-43.132a4.19,4.19,0,0,1,2.224-5.1l24.733-9.909a3.78,3.78,0,0,1,5.077,2.513l1.4,4.622q-1.153,3.383-2.382,6.738Z" transform="translate(-351.74 -435.472)" fill="#faf9fc" opacity="0.35"/>
                  <path id="Path_21578" data-name="Path 21578" d="M447.857,600.187a4.032,4.032,0,0,0-3.8-2.085c-1.276.024-2.549.206-3.821.274a16.014,16.014,0,0,1-2.045,0,3.909,3.909,0,0,1-1.546-.345c-1.13-.6-.02-2.01.483-2.683.963-1.292-11.272,1.474-11.594-.277-.159-.876,12.85-5.795,12.16-6.362a7.053,7.053,0,0,0-2.438-1.189c-.927-.285-1.875-.476-2.818-.7a16.046,16.046,0,0,1-2.759-.939,12.25,12.25,0,0,1-3.6-2.549c2.671.706,5.379,1.264,8.082,1.831,4.653.971,9.342,2.125,14.134,1.978.377-.012.749-.04,1.122-.075l3.226,10.682a5.746,5.746,0,0,1-4.348,7.467l-.436.087a6.926,6.926,0,0,0-.012-5.113Z" transform="translate(-395.07 -523.286)" fill="#231f20" opacity="0.15"/>
                  <path id="Path_21579" data-name="Path 21579" d="M443.28,455.824a.544.544,0,0,1,.721.361l.725,2.4a.636.636,0,0,1-.381.773.549.549,0,0,1-.721-.365l-.725-2.4a.644.644,0,0,1,.377-.777Z" transform="translate(-405.535 -446.296)" fill="#fcc65a"/>
                  <path id="Path_21580" data-name="Path 21580" d="M446.007,470.068a.962.962,0,0,1,1.26.642l1.264,4.178a1.078,1.078,0,0,1-.666,1.324.975.975,0,0,1-1.26-.65l-1.257-4.162A1.091,1.091,0,0,1,446.007,470.068Z" transform="translate(-407.002 -454.88)" fill="#fcc65a"/>
                  <path id="Path_21581" data-name="Path 21581" d="M450.592,485.265a.978.978,0,0,1,1.264.654l1.264,4.178a1.061,1.061,0,0,1-.67,1.312.989.989,0,0,1-1.264-.666l-1.256-4.162a1.074,1.074,0,0,1,.662-1.32Z" transform="translate(-409.767 -464.056)" fill="#fcc65a"/>
                  <path id="Path_21582" data-name="Path 21582" d="M431.937,635.653,443,633.3a.228.228,0,0,1,.262.163.189.189,0,0,1-.139.246l-11.07,2.343a.218.218,0,0,1-.25-.159.179.179,0,0,1,.131-.238Z" transform="translate(-398.849 -553.449)" fill="#eeb653"/>
                  <path id="Path_21583" data-name="Path 21583" d="M416.471,448.572a2.785,2.785,0,0,1,3.48,1.839l3.318,10.769a2.783,2.783,0,1,1-5.319,1.641l-3.318-10.769A2.785,2.785,0,0,1,416.471,448.572Z" transform="translate(-388.412 -441.866)" fill="#eeb653" opacity="0.55"/>
                  <g id="Group_13202" data-name="Group 13202" transform="translate(27.11 7.722)">
                    <path id="Path_21584" data-name="Path 21584" d="M417.22,454.581c.432,1.482,1.669,2.453,2.767,2.168s1.629-1.724,1.2-3.207-1.669-2.453-2.767-2.168S416.784,453.1,417.22,454.581Z" transform="translate(-417.068 -451.324)" fill="#dca245"/>
                    <path id="Path_21585" data-name="Path 21585" d="M418.856,455.238c.365,1.245,1.264,2.1,2.01,1.91s1.05-1.359.686-2.6-1.264-2.1-2.01-1.906-1.05,1.359-.686,2.6Z" transform="translate(-418.054 -452.101)" fill="#2d305e"/>
                  </g>
                </g>
                <path id="Path_21586" data-name="Path 21586" d="M376.455,537.447c2.9-2.965,35.133,4.13,35.133,4.13s-1.3-11.891,1.209-13.179c2.251-1.153,6.813,14.5,7.737,17.765l32.636,12.731-3.016,17.3-41.618-17.4c-4.463,1.712-11.95,4.265-13.762,2.913-2.624-1.962,1.8-6.088,1.8-6.088s-3.714,1.466-4.408-1.867,3.456-2.985,3.456-2.985-4.55-.591-4.055-3.2,4.332-2.18,4.332-2.18-22.343-4.974-19.445-7.939Z" transform="translate(-360.387 -469.217)" fill="#f5a697"/>
                <path id="Path_21587" data-name="Path 21587" d="M479.9,471.174,475.88,483.5s84.548,87.314,109.839,54.872c18.589-23.845-1.982-110.03-24.206-129.729,0,0-20.658-21.265-27.781,30.417l6.647,41.13-60.488-9.009Z" transform="translate(-420.56 -394.348)" fill="#f5a697"/>
                <path id="Path_21588" data-name="Path 21588" d="M546.21,582.753s16.278,8.573,21.205,19.663c0,0-9.465-6.695-34.1-16.921A153.323,153.323,0,0,0,486.07,574.37Z" transform="translate(-426.711 -497.004)" fill="#ed9080"/>
                <path id="Path_21589" data-name="Path 21589" d="M622.195,458.476a46.846,46.846,0,0,0,7.669.543,28.716,28.716,0,0,0,4.166-.309q1.736-.285,3.436-.725a44.819,44.819,0,0,0,13.04-5.719,47.577,47.577,0,0,0,10.825-9.552c.674-.8,1.312-1.641,1.926-2.489-8.149-27.757-20.155-52.629-29.652-61.043,0,0-25.977,7.634-33.1,59.315l10.151,17.82c3.853.686,7.666,1.589,11.538,2.16Z" transform="translate(-495.792 -379.18)" fill="#a2daf7"/>
              </g>
              <path id="Path_21590" data-name="Path 21590" d="M149.057,318.01l8.966,14s-8.236,2-11.641-3.373,2.671-10.63,2.671-10.63Z" transform="translate(-57.024 -166.611)" fill="#f4a091"/>
              <path id="Path_21591" data-name="Path 21591" d="M213.106,379.223s5.6.666,8.557-1.011,2.208-2.668,2.208-2.668-5.981-.472-8.514-2.025-2.251,5.7-2.251,5.7Z" transform="translate(-97.921 -199.988)" fill="#e88e82"/>
              <path id="Path_21592" data-name="Path 21592" d="M175.853,347.6l16.544,9.731s-7.432,6.358-13.746,2.608-2.8-12.339-2.8-12.339Z" transform="translate(-74.85 -184.473)" fill="#e59186"/>
              <g id="Group_13205" data-name="Group 13205" transform="translate(72.515 97.161)">
                <path id="Path_21593" data-name="Path 21593" d="M195.2,181.17c-17.745,1.324-25.724,4.443-28.149,5.6a1.406,1.406,0,0,0-.8,1.371c.424,5.719,4.483,39.648,51.626,56.077l10.052-9.144,40.076-31.495a2.813,2.813,0,0,0-1.074-4.947L195.2,181.17" transform="translate(-142.158 -181.17)" fill="#d51116" fill-rule="evenodd"/>
                <path id="Path_21594" data-name="Path 21594" d="M128.872,188.409c-6.437-1.7-13.274-.86-18.189,4.106a17.346,17.346,0,0,0-4.4,7.836c-4.253,16.1,9.021,34.594,19.727,45.308,7.027,7.023,15.7,13.686,24.765,17.816,7.36,3.353,16.885,5.795,24.408,1.562a17.1,17.1,0,0,0,7.261-8.347s-.079-16.215,5.866-18.2" transform="translate(-105.466 -185.056)" fill="#41ad53" fill-rule="evenodd"/>
                <line id="Line_141" data-name="Line 141" x1="42.779" y2="44.939" transform="translate(75.734 18.157)" fill="#41ad53"/>
                <path id="Path_21595" data-name="Path 21595" d="M121.738,215.748a1.63,1.63,0,0,1,.107-.293c.614-1.217,5.1-9.9,6.829-7.594,1.855,2.473,3.456,20.266,14.439,27.63,9.913,6.647,18.415,13.805,27.757,16.167a1.406,1.406,0,0,1,.349,2.592c-3.916,2.136-11.887,3.916-22.672-6.706-15.656-15.422-17.091-21.344-21.34-26.79S120,222.617,121.738,215.748Z" transform="translate(-114.982 -197.048)" fill="#369f37"/>
                <path id="Path_21596" data-name="Path 21596" d="M194.674,186.96c-17.745,1.324-25.724,4.443-28.149,5.6a1.406,1.406,0,0,0-.8,1.371c.42,5.684,4.836,36.093,51.222,52.625a1.415,1.415,0,0,0,1.423-.285L227.8,237.7l39.485-33.207a1.412,1.412,0,0,0-.618-2.461l-71.991-15.07" transform="translate(-141.838 -184.665)" fill="#e52521" fill-rule="evenodd"/>
                <path id="Path_21597" data-name="Path 21597" d="M150.1,196.456c1.471,3.555,10.579,24.705,23.369,35.827a1.41,1.41,0,0,1-1.494,2.358c-8.343-3.722-21.106-13.1-30.6-36.671a1.4,1.4,0,0,1,.071-1.2c.654-1.193,2.64-3.361,7.9-1.07a1.429,1.429,0,0,1,.753.761Z" transform="translate(-127.078 -189.33)" fill="#369f37" fill-rule="evenodd"/>
                <path id="Path_21598" data-name="Path 21598" d="M169.051,294.868a1.411,1.411,0,0,0,.262-.17c1.054-.864,8.549-7.134,5.926-8.316-2.818-1.272-20.531,1.034-30.107-8.082-8.645-8.228-17.479-14.971-21.82-23.575a1.408,1.408,0,0,0-2.608.226c-1.233,4.289-1.237,12.454,11.479,20.666,18.462,11.923,24.551,12.037,30.793,15,6.2,2.941-.25,7.444,6.076,4.249Z" transform="translate(-114.352 -225.101)" fill="#369f37"/>
              </g>
              <path id="Path_21599" data-name="Path 21599" d="M177.433,172.809s-1.241-8.145,6.27-9.628,20.242,7.626,20.242,7.626l-13.06.254S180.141,179.512,177.433,172.809Z" transform="translate(-76.347 -73.052)" fill="#f5a697"/>
              <path id="Path_21600" data-name="Path 21600" d="M177.182,331.745c-1.51,2.164-8.232,2.394-10.23-2.572s-5.26-20.88-2.144-23.405,8.284,5.347,9.941,10.171S179.469,328.467,177.182,331.745Z" transform="translate(-67.995 -158.927)" fill="#f5a697"/>
              <path id="Path_21601" data-name="Path 21601" d="M179.009,174.444c.289.813,3.444,1.76,5.3-1.28s1.768-4.423,1.768-4.423-4.491-.317-5.351.151S178.3,172.45,179.009,174.444Z" transform="translate(-77.237 -76.443)" fill="#231f20" opacity="0.15"/>
              <path id="Path_21602" data-name="Path 21602" d="M214.679,354.168s-5.708,5.018-7.071.864-3.179-17.3-.5-19.2,6.469,4.8,7.567,8.823.012,9.513.012,9.513Z" transform="translate(-93.474 -177.173)" fill="#f5a697"/>
              <path id="Path_21603" data-name="Path 21603" d="M210.294,344.538s2.382.048,3.179-.84-1.554-5.4-2.8-5.949S208.922,342.5,210.294,344.538Z" transform="translate(-95.735 -178.502)" fill="#e88e82"/>
              <path id="Path_21604" data-name="Path 21604" d="M167.376,314.908s3.214.69,4.134.151-2.01-6.972-3.52-6.71-.614,6.56-.614,6.56Z" transform="translate(-70.162 -160.774)" fill="#e88e82"/>
              <path id="Path_21605" data-name="Path 21605" d="M114.977,284.67l8.966,14s-8.236,2-11.641-3.373,2.671-10.63,2.671-10.63Z" transform="translate(-36.452 -146.486)" fill="#f4a091"/>
              <path id="Path_21606" data-name="Path 21606" d="M141.64,305.6s-8.708-1.641-11.835-8.05-2.307-23.663.159-23.663,7.725,10.186,8.383,12.485,1.811,13.472,3.294,19.223Z" transform="translate(-46.416 -139.979)" fill="#f5a697"/>
              <path id="Path_21607" data-name="Path 21607" d="M130.935,285.188s2.909,2.025,3.512.618-1.027-9.417-2.711-9.009S130.935,285.188,130.935,285.188Z" transform="translate(-48.184 -141.724)" fill="#e88e82"/>
              <path id="Path_21608" data-name="Path 21608" d="M109.363,266.615c-1.585,2.537-6.255-1.879-7.5-8.9s4.293-23.385,6.663-22.707,3.306,4.764,3.306,7.154.86,19.124-2.469,24.451Z" transform="translate(-30.671 -116.496)" fill="#f5a697"/>
              <path id="Path_21609" data-name="Path 21609" d="M110.63,245.99s1.352,1.669,2.323.908,2.592-9.663.678-8.466S110.63,245.99,110.63,245.99Z" transform="translate(-36.068 -118.508)" fill="#e88e82"/>
              <path id="Path_21610" data-name="Path 21610" d="M277.87,433.38s11.253,27.317.955,41.166C278.825,474.546,294.378,459.845,277.87,433.38Z" transform="translate(-137.021 -236.253)" fill="#ed9080"/>
            </g>
            <g id="Group_13208" data-name="Group 13208" transform="translate(36.313 167.812)">
              <g id="Group_13207" data-name="Group 13207" transform="translate(0)">
                <path id="Path_21611" data-name="Path 21611" d="M62.795,364.421a241,241,0,0,1-2.346,39.525,2.309,2.309,0,0,0-1.348.555,3.871,3.871,0,0,1-2.41.817,2.81,2.81,0,0,1-2.109-.832,1.616,1.616,0,0,0-1.145-.551,2.169,2.169,0,0,0-1.344.416,3.74,3.74,0,0,1-2.418.575,2.783,2.783,0,0,1-2-1.031,1.591,1.591,0,0,0-1.078-.654,2.075,2.075,0,0,0-1.344.281,3.516,3.516,0,0,1-2.406.329,2.822,2.822,0,0,1-1.879-1.217,1.587,1.587,0,0,0-.995-.749,2,2,0,0,0-1.336.147,3.418,3.418,0,0,1-2.382.091,2.914,2.914,0,0,1-1.756-1.387,1.618,1.618,0,0,0-.924-.84,1.949,1.949,0,0,0-1.324.012,3.381,3.381,0,0,1-2.346-.147,2.962,2.962,0,0,1-1.621-1.546,1.665,1.665,0,0,0-.844-.923,1.969,1.969,0,0,0-1.312-.127,3.287,3.287,0,0,1-2.283-.377,3.065,3.065,0,0,1-1.482-1.7,1.731,1.731,0,0,0-.765-1,1.957,1.957,0,0,0-1.28-.262,3.292,3.292,0,0,1-2.232-.618,3.134,3.134,0,0,1-1.328-1.823,1.807,1.807,0,0,0-.682-1.07A196.11,196.11,0,0,0,35.609,360.79,1.542,1.542,0,0,1,36.378,362c.091.38.151.583.424.713.289.135.491.055.848-.119a1.673,1.673,0,0,1,1.467-.19,1.494,1.494,0,0,1,.864,1.141c.111.373.194.571.488.678s.491,0,.84-.21a1.73,1.73,0,0,1,1.467-.337,1.488,1.488,0,0,1,.963,1.062c.143.365.234.555.539.63s.5-.048.832-.293a1.791,1.791,0,0,1,1.459-.484,1.458,1.458,0,0,1,1.058.971c.17.349.277.535.591.579s.5-.1.824-.377a1.864,1.864,0,0,1,1.447-.626,1.425,1.425,0,0,1,1.145.872c.2.337.321.507.646.523s.5-.143.809-.46a1.983,1.983,0,0,1,1.419-.773,1.408,1.408,0,0,1,1.233.761c.23.317.373.48.7.464s.5-.194.789-.539a2.071,2.071,0,0,1,1.387-.916,1.409,1.409,0,0,1,1.312.642c.266.293.416.444.753.392s.5-.246.769-.622a2.185,2.185,0,0,1,1.348-1.062Z" transform="translate(-15.307 -360.247)" fill="#fff"/>
                <path id="Path_21612" data-name="Path 21612" d="M55.431,404.926a3.451,3.451,0,0,1-2.572-.991c-.384-.345-.46-.384-.694-.4s-.3.012-.816.305a4.573,4.573,0,0,1-2.957.678,3.466,3.466,0,0,1-2.457-1.249c-.333-.369-.412-.412-.634-.444s-.3-.02-.824.222a4.343,4.343,0,0,1-2.941.38,3.512,3.512,0,0,1-2.3-1.455c-.317-.42-.381-.464-.591-.519s-.289-.048-.82.139a4.229,4.229,0,0,1-2.913.087,3.566,3.566,0,0,1-2.148-1.665c-.281-.448-.337-.5-.543-.571s-.281-.075-.817.056a4.152,4.152,0,0,1-2.866-.2,3.674,3.674,0,0,1-1.986-1.859c-.246-.476-.3-.527-.491-.622s-.293-.1-.828-.032a4.045,4.045,0,0,1-2.782-.487,3.806,3.806,0,0,1-1.819-2.041c-.206-.5-.254-.555-.44-.666s-.273-.135-.8-.119a4.058,4.058,0,0,1-2.723-.777,3.915,3.915,0,0,1-1.645-2.232c-.159-.484-.2-.547-.377-.678l-.511-.392A194.956,194.956,0,0,0,34.289,359.42c.107.055.214.115.325.17a1.9,1.9,0,0,1,.951,1.451c.091.373.119.412.234.464s.174.055.527-.115a2.046,2.046,0,0,1,1.772-.206,1.857,1.857,0,0,1,1.066,1.363c.111.357.147.4.273.444s.178.036.519-.17a2.119,2.119,0,0,1,1.772-.384,1.82,1.82,0,0,1,1.185,1.26c.139.357.178.392.305.424s.182.016.511-.222a2.189,2.189,0,0,1,1.764-.559,1.764,1.764,0,0,1,1.288,1.142c.174.353.218.388.349.408s.182,0,.5-.273a2.31,2.31,0,0,1,1.748-.737,1.756,1.756,0,0,1,1.4,1.015c.206.345.25.369.384.377s.186-.016.488-.325a2.427,2.427,0,0,1,1.72-.912,1.731,1.731,0,0,1,1.506.9c.218.3.277.329.416.321s.19-.036.472-.373a2.544,2.544,0,0,1,1.685-1.086,1.73,1.73,0,0,1,1.589.737c.273.3.321.317.46.3s.19-.056.468-.432a2.685,2.685,0,0,1,1.633-1.256l.4-.083a240.722,240.722,0,0,1-2.121,40.468l-.678.036c-.234.012-.325.048-.824.388a4.777,4.777,0,0,1-2.953.979Zm-3.076-2.255a2.276,2.276,0,0,1,1.605.706,2.144,2.144,0,0,0,1.637.674,2.982,2.982,0,0,0,1.859-.65,3.9,3.9,0,0,1,1.2-.618A240.673,240.673,0,0,0,61.229,364.2a2.284,2.284,0,0,0-.65.7,1.637,1.637,0,0,1-1.086.828,1.083,1.083,0,0,1-1.05-.5,1.106,1.106,0,0,0-1.027-.539,1.6,1.6,0,0,0-1.078.733,1.546,1.546,0,0,1-1.118.721,1.079,1.079,0,0,1-.991-.6c-.258-.373-.472-.63-.959-.626a1.541,1.541,0,0,0-1.118.63,1.45,1.45,0,0,1-1.13.595,1.079,1.079,0,0,1-.912-.69c-.206-.349-.4-.666-.892-.713a1.436,1.436,0,0,0-1.126.507,1.387,1.387,0,0,1-1.161.488c-.507-.075-.682-.428-.844-.769-.174-.365-.333-.7-.816-.789a1.38,1.38,0,0,0-1.142.4,1.333,1.333,0,0,1-1.169.369c-.488-.123-.634-.491-.769-.84-.143-.373-.277-.721-.745-.86a1.323,1.323,0,0,0-1.145.281,1.3,1.3,0,0,1-1.177.254,1.142,1.142,0,0,1-.7-.908c-.123-.432-.242-.749-.662-.916a1.279,1.279,0,0,0-1.153.17,1.223,1.223,0,0,1-1.173.127,1.2,1.2,0,0,1-.618-.959,1.626,1.626,0,0,0-.289-.745,197.42,197.42,0,0,1-18.914,29.065,2.863,2.863,0,0,1,.515,1.015,2.416,2.416,0,0,0,1.015,1.431,2.519,2.519,0,0,0,1.74.46,2.812,2.812,0,0,1,1.764.4,2.484,2.484,0,0,1,1.1,1.352,2.36,2.36,0,0,0,1.138,1.332,2.512,2.512,0,0,0,1.776.273,2.82,2.82,0,0,1,1.807.218,2.423,2.423,0,0,1,1.209,1.241,2.3,2.3,0,0,0,1.249,1.221,2.6,2.6,0,0,0,1.831.091,2.793,2.793,0,0,1,1.823.032,2.326,2.326,0,0,1,1.312,1.122A2.22,2.22,0,0,0,35.24,400.9a2.633,2.633,0,0,0,1.835-.087,2.873,2.873,0,0,1,1.867-.159,2.275,2.275,0,0,1,1.415.995,2.184,2.184,0,0,0,1.451.963,2.73,2.73,0,0,0,1.859-.273,2.968,2.968,0,0,1,1.875-.345,2.28,2.28,0,0,1,1.518.856,2.126,2.126,0,0,0,1.546.82,2.872,2.872,0,0,0,1.879-.472,3.071,3.071,0,0,1,1.859-.527Z" transform="translate(-14.13 -359.42)" fill="#fcc65a"/>
              </g>
              <path id="Path_21613" data-name="Path 21613" d="M73.072,427.305c-.856,4.13-6.659,6.944-12.426,5.192s-8.431-6.754-6.536-10.21c1.906-3.488,6.913-4.816,11.645-3.758,4.717,1.1,8.189,4.63,7.317,8.779Z" transform="translate(-37.899 -394.887)" fill="#fcc65a"/>
              <path id="Path_21614" data-name="Path 21614" d="M73.507,432.489a.656.656,0,0,0-.071-.63,2.661,2.661,0,0,0-.769-.622,10.662,10.662,0,0,1-.967-.65,3.355,3.355,0,0,1-.63-.622,1.548,1.548,0,0,1-.3-.674,1.44,1.44,0,0,1,.1-.765,1.692,1.692,0,0,1,1.058-.987,3.453,3.453,0,0,1,1.8-.1c.107-.305.214-.614.321-.92.293.075.591.147.888.218-.107.313-.21.626-.317.939a2.507,2.507,0,0,1,1.36.995,1.742,1.742,0,0,1,.135,1.51c-.563-.119-1.122-.242-1.681-.377a.978.978,0,0,0-.02-.844,1.022,1.022,0,0,0-.666-.444,1.273,1.273,0,0,0-.793.012.8.8,0,0,0-.46.48.621.621,0,0,0,.059.591,2.746,2.746,0,0,0,.8.654c.412.258.749.48,1.007.674a3.364,3.364,0,0,1,.626.595,1.553,1.553,0,0,1,.305.638,1.446,1.446,0,0,1-.063.733,1.64,1.64,0,0,1-1.05,1.05,3.615,3.615,0,0,1-1.97.087c-.107.281-.214.567-.321.848-.325-.087-.65-.178-.971-.273.111-.277.218-.559.329-.836A3.156,3.156,0,0,1,69.6,432.58,1.642,1.642,0,0,1,69.508,431c.559.182,1.118.357,1.685.523a.933.933,0,0,0,.032.868,1.4,1.4,0,0,0,.864.543,1.607,1.607,0,0,0,.9.024.722.722,0,0,0,.5-.46Z" transform="translate(-47.462 -399.924)" fill="#f8f9fb"/>
              <path id="Path_21615" data-name="Path 21615" d="M86.287,388.425a47.741,47.741,0,0,1-24.237-4.554c.325-.626.642-1.26.963-1.891a46.2,46.2,0,0,0,23.461,4.162c-.055.761-.119,1.526-.182,2.287Z" transform="translate(-43.056 -373.038)" fill="#fcc65a"/>
              <path id="Path_21616" data-name="Path 21616" d="M82.843,398.738a50.831,50.831,0,0,1-25.783-5.375q.5-.927.995-1.863a49.253,49.253,0,0,0,25.014,4.958Q82.962,397.6,82.843,398.738Z" transform="translate(-40.044 -378.785)" fill="#fcc65a"/>
            </g>
            <g id="Group_13210" data-name="Group 13210" transform="translate(324.577 179.497)">
              <g id="Group_13209" data-name="Group 13209">
                <path id="Path_21617" data-name="Path 21617" d="M742.38,392.931a195.32,195.32,0,0,0,1.9,32.058,1.909,1.909,0,0,1,1.094.448,3.123,3.123,0,0,0,1.958.662,2.247,2.247,0,0,0,1.708-.678,1.315,1.315,0,0,1,.927-.448,1.76,1.76,0,0,1,1.09.337,3.018,3.018,0,0,0,1.958.464,2.254,2.254,0,0,0,1.621-.836,1.3,1.3,0,0,1,.876-.531,1.677,1.677,0,0,1,1.09.226,2.859,2.859,0,0,0,1.95.269,2.292,2.292,0,0,0,1.526-.987,1.3,1.3,0,0,1,.809-.61,1.62,1.62,0,0,1,1.082.119,2.789,2.789,0,0,0,1.934.071,2.35,2.35,0,0,0,1.423-1.126,1.332,1.332,0,0,1,.749-.682,1.611,1.611,0,0,1,1.074.008,2.728,2.728,0,0,0,1.9-.119,2.416,2.416,0,0,0,1.316-1.253,1.368,1.368,0,0,1,.686-.749,1.586,1.586,0,0,1,1.062-.1,2.672,2.672,0,0,0,1.851-.305,2.507,2.507,0,0,0,1.2-1.375,1.407,1.407,0,0,1,.622-.813,1.564,1.564,0,0,1,1.038-.21,2.68,2.68,0,0,0,1.811-.5,2.575,2.575,0,0,0,1.078-1.478,1.446,1.446,0,0,1,.555-.868,158.924,158.924,0,0,1-15.839-23.948,1.234,1.234,0,0,0-.622.983c-.075.309-.123.476-.345.579s-.4.044-.686-.1a1.349,1.349,0,0,0-1.189-.155,1.22,1.22,0,0,0-.7.924c-.091.3-.159.464-.4.551s-.4,0-.682-.17a1.4,1.4,0,0,0-1.189-.273,1.215,1.215,0,0,0-.785.864c-.115.293-.19.452-.436.511s-.4-.036-.678-.238a1.46,1.46,0,0,0-1.185-.392,1.172,1.172,0,0,0-.856.789c-.139.285-.226.432-.48.472s-.4-.075-.67-.305a1.516,1.516,0,0,0-1.173-.507,1.164,1.164,0,0,0-.931.706c-.162.274-.262.412-.523.424s-.4-.119-.654-.373a1.613,1.613,0,0,0-1.153-.626,1.148,1.148,0,0,0-1,.618c-.186.258-.305.388-.571.377s-.4-.159-.638-.44a1.691,1.691,0,0,0-1.126-.745,1.148,1.148,0,0,0-1.062.519c-.214.238-.337.357-.61.317s-.4-.2-.626-.507a1.778,1.778,0,0,0-1.094-.86Z" transform="translate(-741.963 -389.546)" fill="#fff"/>
                <path id="Path_21618" data-name="Path 21618" d="M744.449,425.02c-.4-.277-.48-.305-.67-.317s-.369-.016-.551-.028a195.456,195.456,0,0,1-1.72-32.823c.107.024.214.048.325.067a2.176,2.176,0,0,1,1.324,1.019c.226.305.266.333.381.349s.154,0,.373-.242a1.4,1.4,0,0,1,1.288-.595,2.084,2.084,0,0,1,1.367.88c.23.273.273.3.384.3s.159-.016.337-.262a1.407,1.407,0,0,1,1.221-.729,1.958,1.958,0,0,1,1.4.741c.246.25.285.266.4.262s.143-.028.313-.305a1.425,1.425,0,0,1,1.13-.824,1.864,1.864,0,0,1,1.419.6c.258.222.3.238.408.222s.139-.044.281-.329a1.44,1.44,0,0,1,1.046-.924,1.776,1.776,0,0,1,1.431.456c.27.194.313.206.416.178s.135-.055.25-.345a1.481,1.481,0,0,1,.959-1.023,1.733,1.733,0,0,1,1.439.313c.278.166.321.174.42.139s.135-.071.222-.361a1.5,1.5,0,0,1,.864-1.106,1.662,1.662,0,0,1,1.435.166c.285.139.329.139.428.091s.115-.075.19-.377a1.539,1.539,0,0,1,.769-1.177c.087-.048.174-.091.262-.139a158.024,158.024,0,0,0,16.35,24.309c-.139.107-.277.214-.416.317s-.174.159-.305.551a3.166,3.166,0,0,1-1.332,1.807,3.275,3.275,0,0,1-2.208.63c-.428-.016-.5,0-.65.1s-.186.139-.357.539a3.092,3.092,0,0,1-1.474,1.657,3.283,3.283,0,0,1-2.259.4c-.432-.055-.507-.055-.67.028s-.2.119-.4.5a2.968,2.968,0,0,1-1.609,1.506,3.394,3.394,0,0,1-2.323.167c-.436-.107-.5-.107-.662-.044s-.21.1-.44.464a2.907,2.907,0,0,1-1.74,1.352,3.432,3.432,0,0,1-2.362-.071c-.432-.151-.5-.159-.666-.111s-.222.079-.48.42a2.834,2.834,0,0,1-1.863,1.181,3.537,3.537,0,0,1-2.386-.309c-.428-.194-.492-.206-.666-.178s-.242.063-.515.361a2.781,2.781,0,0,1-1.994,1.011,3.707,3.707,0,0,1-2.4-.551c-.42-.238-.484-.258-.662-.246s-.25.048-.563.325a2.781,2.781,0,0,1-2.085.8,3.858,3.858,0,0,1-2.394-.793Zm6.4-.61a2.332,2.332,0,0,0,1.526.38,1.717,1.717,0,0,0,1.252-.666,1.86,1.86,0,0,1,1.233-.7,2.416,2.416,0,0,1,1.522.281,2.206,2.206,0,0,0,1.506.222,1.755,1.755,0,0,0,1.177-.781,1.868,1.868,0,0,1,1.146-.809,2.336,2.336,0,0,1,1.514.131,2.136,2.136,0,0,0,1.49.071,1.815,1.815,0,0,0,1.1-.888,1.883,1.883,0,0,1,1.066-.912,2.251,2.251,0,0,1,1.478-.024,2.127,2.127,0,0,0,1.486-.075,1.843,1.843,0,0,0,1.011-.987,1.946,1.946,0,0,1,.979-1.007,2.287,2.287,0,0,1,1.467-.178,2.023,2.023,0,0,0,1.443-.222,1.913,1.913,0,0,0,.924-1.082,2.006,2.006,0,0,1,.892-1.1,2.292,2.292,0,0,1,1.431-.329,2.052,2.052,0,0,0,1.411-.373,1.948,1.948,0,0,0,.824-1.161,2.263,2.263,0,0,1,.42-.824A160.125,160.125,0,0,1,763.8,389.808a1.316,1.316,0,0,0-.234.6.958.958,0,0,1-.5.777.993.993,0,0,1-.951-.1,1.038,1.038,0,0,0-.935-.139c-.341.139-.436.392-.535.745a.931.931,0,0,1-.571.737,1.034,1.034,0,0,1-.955-.206,1.079,1.079,0,0,0-.932-.23c-.38.111-.487.4-.6.7-.111.285-.23.583-.626.682a1.084,1.084,0,0,1-.951-.3,1.119,1.119,0,0,0-.924-.321c-.393.075-.519.345-.662.638-.131.277-.273.563-.686.622a1.131,1.131,0,0,1-.939-.4,1.177,1.177,0,0,0-.912-.412c-.4.036-.555.293-.721.579a.878.878,0,0,1-.741.559,1.179,1.179,0,0,1-.916-.48,1.248,1.248,0,0,0-.908-.511c-.392,0-.567.206-.777.507a.871.871,0,0,1-.8.487,1.239,1.239,0,0,1-.9-.587,1.3,1.3,0,0,0-.876-.595.891.891,0,0,0-.832.436.87.87,0,0,1-.852.4,1.327,1.327,0,0,1-.88-.67,1.926,1.926,0,0,0-.527-.567,195.368,195.368,0,0,0,2.089,31.293,3.256,3.256,0,0,1,.971.5,2.4,2.4,0,0,0,1.506.527,1.748,1.748,0,0,0,1.328-.547,1.835,1.835,0,0,1,1.3-.571,2.472,2.472,0,0,1,1.506.428Z" transform="translate(-741.408 -388.9)" fill="#fcc65a"/>
              </g>
              <path id="Path_21619" data-name="Path 21619" d="M767.493,443.962c.694,3.349,5.4,5.632,10.079,4.209s6.837-5.478,5.3-8.28c-1.546-2.83-5.609-3.9-9.445-3.048-3.825.892-6.643,3.757-5.934,7.123Z" transform="translate(-757.088 -417.667)" fill="#fcc65a"/>
              <path id="Path_21620" data-name="Path 21620" d="M785.611,447.142a.521.521,0,0,0-.369-.357,2.151,2.151,0,0,0-.8.008,8.528,8.528,0,0,1-.939.087,2.63,2.63,0,0,1-.713-.067,1.25,1.25,0,0,1-.531-.27,1.165,1.165,0,0,1-.329-.535,1.379,1.379,0,0,1,.155-1.165,2.8,2.8,0,0,1,1.078-.987c-.091-.25-.182-.5-.27-.745l.67-.321c.1.25.19.5.285.753a2.054,2.054,0,0,1,1.364-.075,1.414,1.414,0,0,1,.86.88c-.412.218-.828.424-1.245.63a.79.79,0,0,0-.448-.519.839.839,0,0,0-.646.063,1.043,1.043,0,0,0-.492.416.631.631,0,0,0-.04.535.5.5,0,0,0,.341.341,2.274,2.274,0,0,0,.836,0c.388-.051.717-.087.979-.1a2.564,2.564,0,0,1,.7.052,1.283,1.283,0,0,1,.519.242,1.132,1.132,0,0,1,.337.492,1.355,1.355,0,0,1-.115,1.2,2.906,2.906,0,0,1-1.189,1.066c.079.234.159.464.234.7-.25.111-.5.222-.749.329-.075-.23-.151-.464-.226-.694a2.566,2.566,0,0,1-1.645.1,1.341,1.341,0,0,1-.872-.947c.444-.174.884-.353,1.324-.539a.746.746,0,0,0,.468.527,1.144,1.144,0,0,0,.82-.1,1.257,1.257,0,0,0,.579-.452.6.6,0,0,0,.075-.547Z" transform="translate(-765.827 -421.43)" fill="#f8f9fb"/>
              <path id="Path_21621" data-name="Path 21621" d="M750.941,412.438a38.692,38.692,0,0,0,19.659-3.694c-.262-.511-.523-1.023-.781-1.534a37.455,37.455,0,0,1-19.029,3.373c.048.618.1,1.237.147,1.855Z" transform="translate(-747.071 -399.953)" fill="#fcc65a"/>
              <path id="Path_21622" data-name="Path 21622" d="M751.772,420.784a41.266,41.266,0,0,0,20.912-4.36q-.4-.755-.809-1.514a39.994,39.994,0,0,1-20.286,4.023C751.649,419.551,751.709,420.166,751.772,420.784Z" transform="translate(-747.554 -404.601)" fill="#fcc65a"/>
            </g>
            <g id="Group_13217" data-name="Group 13217" transform="translate(75.465 281.1)" opacity="0.9">
              <path id="Path_21623" data-name="Path 21623" d="M218.805,722.6l-98.666-14.737c-4.415-.658-7.606-5.755-7.194-11.379l3.044-41.586c.4-5.49,4.225-9.8,8.6-9.651l97.6,3.4c6.171.214,11.027,5.787,10.741,12.465l-2.176,50.726c-.3,6.877-5.7,11.7-11.95,10.761Z" transform="translate(-112.91 -645.24)" fill="#efeddf"/>
              <path id="Path_21624" data-name="Path 21624" d="M162.068,719.9l-30.738-4.106L134.4,672.7l30.555,1.669Z" transform="translate(-124.029 -661.816)" fill="#e7207b"/>
              <g id="Group_13211" data-name="Group 13211" transform="translate(45.712 15.946)">
                <path id="Path_21625" data-name="Path 21625" d="M237.717,689.6l-2.842-.678-1.09-3.119a.436.436,0,0,0-.828-.052l-1.451,2.949-2.842.3a.571.571,0,0,0-.309.9l1.887,2.493-.686,3.294c-.091.44.281.809.626.626l2.628-1.383,2.461,1.784c.329.238.749-.071.709-.527l-.289-3.4,2.228-2.239a.58.58,0,0,0-.2-.951Z" transform="translate(-228.24 -685.472)" fill="#fee180"/>
                <path id="Path_21626" data-name="Path 21626" d="M231.539,699.466a1.938,1.938,0,0,0-.079-.967,1.2,1.2,0,0,0-.262-.333c-.071-.067-.151-.131-.222-.2s-.17-.143-.258-.206a2.938,2.938,0,0,0-.539-.313c-.063-.028-.127-.06-.19-.083s-.131-.044-.194-.063c-.3-.083-.6-.131-.892-.226a.19.19,0,0,1-.044-.016l1.76,2.327-.686,3.294a.567.567,0,0,0,.262.626c.036-.067.075-.135.111-.2a10.784,10.784,0,0,0,.991-2.319,7.914,7.914,0,0,0,.246-1.328Z" transform="translate(-228.614 -692.467)" fill="#f07f13"/>
                <path id="Path_21627" data-name="Path 21627" d="M242.052,689.051a1.143,1.143,0,0,0,.155.416.564.564,0,0,0,.305.2,2.8,2.8,0,0,0,.872.083c.361,0,.721.036,1.082.06.5.032,1.007.056,1.51.079a.451.451,0,0,0-.317-.273l-2.842-.678-1.09-3.119a.47.47,0,0,0-.337-.321,33.514,33.514,0,0,0,.666,3.555Z" transform="translate(-236.178 -685.489)" fill="#ffce05"/>
              </g>
              <g id="Group_13212" data-name="Group 13212" transform="translate(58.278 16.704)">
                <path id="Path_21628" data-name="Path 21628" d="M269.831,691.607l-2.969-.7-1.153-3.191a.457.457,0,0,0-.864-.051l-1.5,3.012-2.965.3a.578.578,0,0,0-.317.923l1.978,2.553-.7,3.365c-.091.448.3.825.658.638l2.739-1.411,2.576,1.823c.345.246.781-.071.741-.535l-.317-3.476,2.311-2.283a.59.59,0,0,0-.218-.975Z" transform="translate(-259.944 -687.383)" fill="#fee180"/>
                <path id="Path_21629" data-name="Path 21629" d="M263.39,701.671a1.884,1.884,0,0,0-.091-.987,1.28,1.28,0,0,0-.273-.341c-.075-.067-.155-.135-.234-.2a3.3,3.3,0,0,0-.27-.21,2.942,2.942,0,0,0-.563-.321c-.067-.028-.131-.063-.2-.087a2,2,0,0,0-.2-.063c-.309-.087-.626-.135-.931-.234a.226.226,0,0,1-.048-.016l1.847,2.382-.7,3.365a.582.582,0,0,0,.273.642c.04-.068.079-.139.115-.206a11.06,11.06,0,0,0,1.023-2.366,7.827,7.827,0,0,0,.25-1.36Z" transform="translate(-260.328 -694.522)" fill="#f07f13"/>
                <path id="Path_21630" data-name="Path 21630" d="M274.31,691.029a1.2,1.2,0,0,0,.162.424.593.593,0,0,0,.317.206,2.925,2.925,0,0,0,.908.087c.377,0,.753.036,1.13.059.523.032,1.05.06,1.578.083a.488.488,0,0,0-.329-.281l-2.969-.7-1.153-3.191a.493.493,0,0,0-.353-.329,32.1,32.1,0,0,0,.713,3.631Z" transform="translate(-268.187 -687.387)" fill="#ffce05"/>
              </g>
              <g id="Group_13213" data-name="Group 13213" transform="translate(71.392 17.496)">
                <path id="Path_21631" data-name="Path 21631" d="M303.355,693.706l-3.1-.717-1.221-3.262a.48.48,0,0,0-.9-.055l-1.554,3.08-3.092.305a.586.586,0,0,0-.329.943l2.077,2.612-.713,3.44c-.1.46.313.844.69.654l2.85-1.435,2.7,1.871a.513.513,0,0,0,.769-.547l-.349-3.555,2.406-2.331a.6.6,0,0,0-.23-.995Z" transform="translate(-293.029 -689.383)" fill="#fee180"/>
                <path id="Path_21632" data-name="Path 21632" d="M296.639,703.987a1.875,1.875,0,0,0-.1-1.007,1.3,1.3,0,0,0-.289-.349c-.079-.071-.162-.139-.246-.206s-.186-.147-.281-.218a3.206,3.206,0,0,0-.591-.329c-.071-.028-.139-.063-.206-.087s-.143-.048-.214-.067c-.325-.087-.654-.139-.975-.238-.016,0-.032-.012-.048-.016l1.938,2.438-.713,3.44a.6.6,0,0,0,.289.658c.04-.071.079-.139.123-.21a11.1,11.1,0,0,0,1.058-2.418,7.439,7.439,0,0,0,.254-1.387Z" transform="translate(-293.428 -696.679)" fill="#f07f13"/>
                <path id="Path_21633" data-name="Path 21633" d="M307.985,693.13a1.268,1.268,0,0,0,.17.436.632.632,0,0,0,.333.214,3.194,3.194,0,0,0,.951.091c.392,0,.789.04,1.181.063.547.032,1.1.063,1.645.087a.525.525,0,0,0-.349-.289l-3.1-.717-1.221-3.262a.5.5,0,0,0-.373-.333,32.966,32.966,0,0,0,.761,3.714Z" transform="translate(-301.595 -689.405)" fill="#ffce05"/>
              </g>
              <g id="Group_13214" data-name="Group 13214" transform="translate(85.398 18.348)">
                <path id="Path_21634" data-name="Path 21634" d="M339.172,695.962l-3.254-.737-1.292-3.341a.506.506,0,0,0-.943-.056l-1.609,3.147-3.234.309a.591.591,0,0,0-.337.963l2.188,2.675-.729,3.52a.549.549,0,0,0,.725.67l2.977-1.467,2.834,1.918a.533.533,0,0,0,.8-.559l-.381-3.639,2.505-2.382a.609.609,0,0,0-.246-1.019Z" transform="translate(-328.366 -691.53)" fill="#fcc65a"/>
                <path id="Path_21635" data-name="Path 21635" d="M332.176,706.456a1.925,1.925,0,0,0-.107-1.031,1.257,1.257,0,0,0-.305-.357c-.083-.071-.17-.139-.258-.21s-.194-.151-.3-.222a3.115,3.115,0,0,0-.618-.337c-.071-.028-.143-.063-.218-.091s-.147-.048-.222-.067c-.337-.091-.686-.143-1.019-.246-.016,0-.036-.012-.052-.016l2.041,2.5-.729,3.52a.606.606,0,0,0,.305.674c.044-.071.083-.143.127-.214a11.073,11.073,0,0,0,1.094-2.473,7.514,7.514,0,0,0,.258-1.419Z" transform="translate(-328.797 -698.985)" fill="#f07f13"/>
                <path id="Path_21636" data-name="Path 21636" d="M343.993,695.345a1.253,1.253,0,0,0,.182.444.68.68,0,0,0,.349.218,3.507,3.507,0,0,0,.995.1c.412,0,.824.04,1.237.067.575.036,1.149.067,1.724.091a.544.544,0,0,0-.365-.3l-3.254-.737-1.292-3.341a.541.541,0,0,0-.388-.345,33.724,33.724,0,0,0,.817,3.8Z" transform="translate(-337.308 -691.536)" fill="#ffce05"/>
              </g>
              <g id="Group_13215" data-name="Group 13215" transform="translate(99.734 19.215)">
                <path id="Path_21637" data-name="Path 21637" d="M375.845,698.262l-3.409-.761-1.371-3.421a.535.535,0,0,0-.987-.06l-1.669,3.218-3.381.309a.6.6,0,0,0-.349.987l2.3,2.739-.745,3.6a.574.574,0,0,0,.761.69l3.107-1.494,2.973,1.97a.55.55,0,0,0,.836-.571l-.42-3.726,2.612-2.434a.622.622,0,0,0-.266-1.046Z" transform="translate(-364.535 -693.72)" fill="#fcc65a"/>
                <path id="Path_21638" data-name="Path 21638" d="M368.55,708.968a1.919,1.919,0,0,0-.119-1.058,1.349,1.349,0,0,0-.321-.365c-.087-.075-.182-.143-.27-.218s-.2-.155-.309-.226a3.4,3.4,0,0,0-.65-.345c-.075-.032-.151-.067-.23-.1a2.3,2.3,0,0,0-.234-.071c-.353-.1-.717-.151-1.066-.254l-.052-.016,2.148,2.557-.745,3.6a.621.621,0,0,0,.325.69c.044-.075.087-.147.131-.222a11,11,0,0,0,1.13-2.529,7.462,7.462,0,0,0,.262-1.455Z" transform="translate(-364.997 -701.326)" fill="#fcc65a"/>
                <path id="Path_21639" data-name="Path 21639" d="M380.862,697.632a1.324,1.324,0,0,0,.19.456.7.7,0,0,0,.369.222,3.674,3.674,0,0,0,1.042.1c.432,0,.864.044,1.3.071.6.036,1.2.067,1.8.1a.57.57,0,0,0-.384-.305l-3.409-.761-1.371-3.421a.565.565,0,0,0-.408-.353A33.522,33.522,0,0,0,380.862,697.632Z" transform="translate(-373.864 -693.732)" fill="#fcc65a"/>
              </g>
              <path id="Path_21640" data-name="Path 21640" d="M165.558,717.74a15.248,15.248,0,0,1-1.316,1.522,14.114,14.114,0,0,1-11.887,4.5l-.88-.107c-4.97-.618-9.132-4.007-11.605-8.771,2.838-4.4,7.23-7.166,12.117-7.079-3.258-.924-5.521-4.649-5.232-8.878.321-4.63,3.6-8.173,7.364-7.927,3.817.254,6.695,4.3,6.381,9.041-.285,4.336-3.123,7.662-6.52,7.955,4.954.868,9.16,4.582,11.57,9.742Z" transform="translate(-129.184 -672.856)" fill="#fff"/>
              <g id="Group_13216" data-name="Group 13216" transform="translate(43.543 34.024)">
                <path id="Path_21641" data-name="Path 21641" d="M259.964,734.141l-33.639-3.052a2.113,2.113,0,0,0-2.113,2.168h0a2.289,2.289,0,0,0,1.823,2.545l33.667,3.326a2.254,2.254,0,0,0,2.346-2.287h0a2.489,2.489,0,0,0-2.081-2.7Z" transform="translate(-223.636 -731.082)" fill="#e0e2e5"/>
                <path id="Path_21642" data-name="Path 21642" d="M236.347,755.366l-11.459-1.221a2.084,2.084,0,0,0-2.117,2.148,2.344,2.344,0,0,0,1.823,2.588l11.467,1.312a2.126,2.126,0,0,0,2.2-2.188A2.4,2.4,0,0,0,236.347,755.366Z" transform="translate(-222.767 -744.999)" fill="#e0e2e5"/>
                <path id="Path_21643" data-name="Path 21643" d="M283.842,760.434l-12.2-1.3a2.159,2.159,0,0,0-2.235,2.212,2.454,2.454,0,0,0,1.958,2.675l12.212,1.4a2.207,2.207,0,0,0,2.331-2.251,2.527,2.527,0,0,0-2.065-2.735Z" transform="translate(-250.915 -748.009)" fill="#e0e2e5"/>
                <path id="Path_21644" data-name="Path 21644" d="M336.982,766.114l-13.064-1.391A2.249,2.249,0,0,0,321.544,767a2.591,2.591,0,0,0,2.113,2.779l13.076,1.5a2.3,2.3,0,0,0,2.477-2.327,2.672,2.672,0,0,0-2.232-2.842Z" transform="translate(-282.39 -751.382)" fill="#e0e2e5"/>
                <path id="Path_21645" data-name="Path 21645" d="M350.473,742.381l-21.74-1.974a2.283,2.283,0,0,0-2.378,2.307h0a2.541,2.541,0,0,0,2.121,2.739l21.76,2.152a2.379,2.379,0,0,0,2.545-2.382h0A2.684,2.684,0,0,0,350.473,742.381Z" transform="translate(-285.294 -736.706)" fill="#e0e2e5"/>
              </g>
            </g>
          </g>
          <path id="Path_21646" data-name="Path 21646" d="M164.774,202.22s27.888,46.307,52.656,53.413l-1.585.4s-57.869-21.8-51.071-53.81Z" transform="translate(-68.417 -96.716)" fill="#fff" fill-rule="evenodd"/>
          <path id="Path_21647" data-name="Path 21647" d="M278.079,298c.523.852-3.916,6.211-5.612,3.448S277.556,297.156,278.079,298Z" transform="translate(-133.595 -154.394)" fill="#5a5959"/>
          <path id="Path_21648" data-name="Path 21648" d="M255.246,261.68c.206.975-5.783,4.522-6.445,1.352S255.044,260.705,255.246,261.68Z" transform="translate(-119.447 -132.074)" fill="#5a5959"/>
          <path id="Path_21649" data-name="Path 21649" d="M209.416,214.89c.206.975-5.783,4.522-6.445,1.352S209.214,213.915,209.416,214.89Z" transform="translate(-91.782 -103.829)" fill="#5a5959"/>
          <path id="Path_21650" data-name="Path 21650" d="M278.416,210.89c.206.975-5.783,4.522-6.445,1.352S278.214,209.915,278.416,210.89Z" transform="translate(-133.433 -101.415)" fill="#5a5959"/>
          <path id="Path_21651" data-name="Path 21651" d="M306.256,263.807c.587.809-3.432,6.488-5.335,3.861S305.669,263,306.256,263.807Z" transform="translate(-150.73 -133.784)" fill="#5a5959"/>
          <path id="Path_21652" data-name="Path 21652" d="M286.523,243.634c.079.995-6.31,3.75-6.564.519S286.448,242.639,286.523,243.634Z" transform="translate(-138.278 -120.896)" fill="#5a5959"/>
          <path id="Path_21653" data-name="Path 21653" d="M336.336,241.207c.587.809-3.432,6.488-5.335,3.861S335.749,240.4,336.336,241.207Z" transform="translate(-168.887 -120.142)" fill="#5a5959"/>
          <path id="Path_21654" data-name="Path 21654" d="M312.842,225.289c.186.979-5.866,4.411-6.469,1.225S312.659,224.306,312.842,225.289Z" transform="translate(-154.204 -110.066)" fill="#5a5959"/>
          <path id="Path_21655" data-name="Path 21655" d="M239.02,233.563c.706.706-2.362,6.948-4.657,4.657S238.314,232.858,239.02,233.563Z" transform="translate(-110.454 -115.574)" fill="#5a5959"/>
          <path id="Path_21656" data-name="Path 21656" d="M363.452,222.619c.186.979-5.866,4.411-6.469,1.225S363.269,221.636,363.452,222.619Z" transform="translate(-184.755 -108.455)" fill="#5a5959"/>
        </g>
      </g>
    </g>
  </g>
</svg>
