<svg xmlns="http://www.w3.org/2000/svg" width="31.545" height="31.545" viewBox="0 0 31.545 31.545">
  <g id="Path_20819" data-name="Path 20819" fill="#00b208">
    <path d="M 15.7723388671875 30.54467964172363 C 11.82650852203369 30.54467964172363 8.116848945617676 29.00808906555176 5.326718807220459 26.21795845031738 C 2.536588907241821 23.42782974243164 0.9999988675117493 19.71816825866699 0.9999988675117493 15.7723388671875 C 0.9999988675117493 11.82650852203369 2.536588907241821 8.116848945617676 5.326718807220459 5.326718807220459 C 8.116848945617676 2.536588907241821 11.82650852203369 0.9999988675117493 15.7723388671875 0.9999988675117493 C 19.71816825866699 0.9999988675117493 23.42782974243164 2.536588907241821 26.21795845031738 5.326718807220459 C 29.00808906555176 8.116848945617676 30.54467964172363 11.82650852203369 30.54467964172363 15.7723388671875 C 30.54467964172363 19.71816825866699 29.00808906555176 23.42782974243164 26.21795845031738 26.21795845031738 C 23.42782974243164 29.00808906555176 19.71816825866699 30.54467964172363 15.7723388671875 30.54467964172363 Z" stroke="none"/>
    <path d="M 15.7723388671875 1.999998092651367 C 12.09361839294434 1.999998092651367 8.635078430175781 3.43256950378418 6.033828735351562 6.033828735351562 C 3.43256950378418 8.635078430175781 1.999998092651367 12.09361839294434 1.999998092651367 15.7723388671875 C 1.999998092651367 19.45105934143066 3.43256950378418 22.90959930419922 6.033828735351562 25.51084899902344 C 8.635078430175781 28.11210823059082 12.09361839294434 29.54467964172363 15.7723388671875 29.54467964172363 C 19.45105934143066 29.54467964172363 22.90959930419922 28.11210823059082 25.51084899902344 25.51084899902344 C 28.11210823059082 22.90959930419922 29.54467964172363 19.45105934143066 29.54467964172363 15.7723388671875 C 29.54467964172363 12.09361839294434 28.11210823059082 8.635078430175781 25.51084899902344 6.033828735351562 C 22.90959930419922 3.43256950378418 19.45105934143066 1.999998092651367 15.7723388671875 1.999998092651367 M 15.7723388671875 -1.9073486328125e-06 C 24.48315811157227 -1.9073486328125e-06 31.54467964172363 7.061519622802734 31.54467964172363 15.7723388671875 C 31.54467964172363 24.48315811157227 24.48315811157227 31.54467964172363 15.7723388671875 31.54467964172363 C 7.061519622802734 31.54467964172363 -1.9073486328125e-06 24.48315811157227 -1.9073486328125e-06 15.7723388671875 C -1.9073486328125e-06 7.061519622802734 7.061519622802734 -1.9073486328125e-06 15.7723388671875 -1.9073486328125e-06 Z" stroke="none" fill="#fff"/>
  </g>
</svg>
